<?xml version="1.0" encoding="UTF-8"?>
<svg id="Layer_1" data-name="Layer 1" xmlns="http://www.w3.org/2000/svg" version="1.1" viewBox="0 0 323.3 323.3">
  <defs>
    <style>
      .cls-1 {
        fill: #4a5604;
        stroke: #1d1d1b;
        stroke-miterlimit: 10;
        stroke-width: 6px;
      }

      .cls-2 {
        fill: #fff;
        stroke-width: 0px;
      }
    </style>
  </defs>
  <rect class="cls-1" x="2.9" y="3" width="317.3" height="317.3"/>
  <g>
    <path class="cls-2" d="M158.4,42.1c-1.2,1-1.5,1.4-1.5,2s.1,1.2.2,1.7c.2,1.8-1.3,3.1-4.1,3.3-.9,0-2.1.4-2.5.6-1.2.8-6.8,7.5-6.5,7.8s.6.2,1.1,0c3-1.4,12.1-2.9,17.4-2.9s8.5.6,10.3,1.1c1.3.4,2.1.4,2.1,0s-1.7-2.5-4-4.9l-1.8-1.8h-2.7c-3.1,0-4.3-.4-5.3-1.6-.9-1.1-.7-3.1.4-4.2l.8-.8-.9-.8c-.5-.4-1.1-.8-1.2-.8s-1,.6-1.8,1.3Z"/>
    <path class="cls-2" d="M157.7,61.3c-3.5.4-10.3,2-13.2,3.2-4,1.7-5.1,2.1-6,2.1s-2.3.9-2.3,1.6-.3.6-.7,1.1-1.1,1.6-1.5,2.4-1.1,1.9-1.4,2.5c-1.2,2.1-3.2,5.9-3.2,6.2s1.3-.4,2.7-1.6c1.1-.9,5.4-3.7,7.9-5,3.3-1.8,8.1-3.6,12.6-4.9,4.7-1.3,5.9-1.5,11.6-1.5s5.6,0,6.7.7c1.3.8,1.7,1.4,1.7,2.9s-.2,1.4-.7,2l-.7.8h-6c-3.8,0-6.4,0-7.3.4-.7.2-1.9.5-2.6.7-2.2.6-4.7,1.3-6.3,2-4.6,1.9-6.2,2.7-8.4,4-4.5,2.6-8.2,5.8-10.9,9.2-2.6,3.2-3.5,4.1-4.7,4.5-1.5.4-2,1.6-2.1,4.5,0,1.9-.4,3.3-1.2,4.7-.5.9-1.2,4.5-1.7,8.7-.5,3.7-.7,16.8-.3,18.8.2,1.1.7.6.7-.7s.8-2.8,1.5-3.5,2.8-.8,3.8,0c1.5,1.1,1.6,2.8.4,8.6-.5,2.5-.6,13.6-.3,16,.2,1.1.5,2.8.6,3.7s.4,2.1.5,2.6c.2.5.5,1.8.8,2.7.6,1.9,4,8.8,5.7,11.4.3.5.7,1.1.9,1.5,1,1.8,4.2,6.6,6.7,10,4.6,6.2,8.6,10.7,15,17.3l4,4.1,3.8-3.9c4.3-4.5,8.2-8.7,8.9-9.9l.5-.8-3.5-3.6c-3.6-3.7-5.7-6-7-7.8-.4-.6-.8-1.2-.9-1.3-3-3.9-7.4-12-9.3-17.3-2.8-7.8-3.5-12.1-3.6-20.1,0-6.5.1-7.4,1.5-11.9,1.3-4.4,4-7.9,6.4-8.2,2.6-.4,4,.4,5.5,2.7,1.7,2.8,2.3,7,2.4,16.8,0,6.3.1,7.5.7,9.7.4,1.4.8,2.6.9,2.8.1.2.3.5.3.8,0,.8,3.2,6.9,5.1,9.7,3.2,4.8,10.8,13.7,11.8,13.7s2-2.4,2.5-3.7c.3-.8.3-.9-3.1-4.6-1-1.1-2.4-2.8-3.1-3.7-.7-.9-1.4-1.8-1.6-2-.5-.5-3.3-4.9-4.1-6.2-.3-.6-.7-1.2-.9-1.5-.9-1.2-2.6-6.2-3.5-9.7-1.1-4.7-.9-6.2.9-7.3,1.1-.7,2-.7,3.1-.1,1.1.7,1.6,1.7,1.8,3.6.1.9.3,2,.5,2.5.1.5.6,1.9.9,3.1,1.2,4,3.4,7.9,7.5,13.1,3.8,4.9,6,6.8,6,5.3s.4-1.1.9-2,.9-1.9.9-2.3-1.6-2.9-2.4-3.5c0,0-1.1-1.6-2.3-3.3-2.2-3.3-5.1-8.8-6-11.3s-1.6-4.9-2-6.5c-.8-3-2.3-10.6-2.3-11.8s-.2-1.9-.4-3.3c-.3-1.5-.7-3.9-.9-5.4-.9-5.1-1.8-7.9-3.5-10.2-3.6-5.1-9.2-7-15.3-5.3-3.3,1-3.4,1-4.4.4-1.8-1-2.4-3.1-1.3-4.6,1.7-2.4,9.9-3.7,14.9-2.3,6.2,1.7,10.9,5.9,13.5,12,1.3,3.1,1.8,5.3,3.1,13.3.2,1.5.6,3.7.8,4.8.2,1.1.4,3,.6,4,.1,1.1.4,2.5.6,3.1s.5,2,.8,3.1c.6,2.6,1.6,5.8,2,6.1.1.2.2.5.2.7,0,.4,1.9,4.5,3,6.4s3.4,5.3,4,5.8.6.5,1.2-1.6c.4-1.2.8-2.6,1-3.2.9-2.6.9-3.1-.6-5.3-1.3-1.9-4.2-7.5-4.2-8s-.2-.6-.4-1.1c-.5-1.1-2-5.8-2.6-8.1-.2-.9-.6-2.5-.9-3.5-1.1-3.9-.6-5.7,1.6-6.7.9-.4,1.1-.3,2.1.2,1.3.7,1.8,1.3,2.2,3.4.8,3.2,1.2,5,1.7,6.6.3.9.6,2,.8,2.5.1.5.5,1.6.9,2.5s.7,2,.9,2.4c.3,1.1,1.2,2.3,1.5,2.2.2-.1.3-1.5.8-8.7.2-2.5.1-3.1-.5-5-1-3-2-7.8-2.6-12-.2-1.2-.4-2.6-.6-3.1-.2-.5-.3-1.2-.3-1.6s-.2-1.5-.5-2.4c-.2-.9-.6-2.3-.9-3.2-.5-1.6-1.3-4.2-2-6.2-1.6-4.3-5.2-9.1-9.1-12.1-2.7-2.1-2.8-2.1-5.5-3.5-2.5-1.3-3.1-2-3.1-3.5,0-2.7,2.6-3.8,5.5-2.5,2,.9,5.8,3.3,5.9,3.5.1.3.9.3.9,0s-.4-.8-.8-1.6c-.5-.7-.9-1.6-1-1.8s-.4-.8-.7-1.2c-.3-.4-.9-1.4-1.3-2.1-.9-1.6-1.7-2.5-2-2.5s-1.1-.4-2.1-.9c-1.1-.5-2.1-.9-2.4-.9s-.5,0-.6-.3c0,0-.6-.4-1.1-.5s-1.5-.4-2.1-.6c-3.8-1.2-10.9-1.8-16.1-1.3h-.2,0ZM168.5,80.4c4.7.9,7.5,2.1,10.9,4.6,3.5,2.6,6,5.7,7.9,9.6.6,1.3,1.2,2.6,1.4,2.8.1.3.3.7.3.9s.2.7.4,1.2.6,1.7.9,2.7c.3,1,.7,2.3.9,2.9.7,2.1.6,3.2-.7,4.4s-2.3,1.3-3.8.4c-1-.6-1.4-1.5-2.6-5.7-.3-1-.7-2.2-.9-2.7s-.4-1.1-.4-1.3-.6-1.6-1.4-3.2c-1.1-2.2-1.9-3.3-3.6-5.1-1.2-1.2-2.6-2.4-3-2.6-.4,0-1.1-.5-1.6-.8-2-1.2-6.8-2.4-9.6-2.4s-5,.6-6.7,1.1c-.8.2-1.5.4-1.7.4-.6,0-6.4,2.9-8,4-1.3.9-2.2,1.6-5.2,4.1-1.6,1.3-5.7,6.7-7.5,9.6-1,1.7-1.9,3.3-1.9,3.4s-.2.6-.4,1.1c-.8,1.5-1.3,3-1.3,3.4s-.1.5-.3.6c-.1,0-.4.6-.5,1.1-.8,3.8-1.6,5.7-2.8,6.4-1.3.8-2.1.6-3.4-.5-1.1-.9-1.1-1.1-1.1-2.5,0-2.3,1.9-8,4.2-13,3.5-7.5,11.4-16.3,18.4-20.4,7.7-4.5,15.9-6.2,23.2-4.8v.3h0ZM147.6,101.1c.4.3,1,1,1.3,1.6.4,1,.4,1.2,0,2.1-.3.5-1,1.5-1.7,2.3-1.5,1.6-4.2,6-6.2,10.1-2.3,4.8-2.7,6-3.7,10.3-.2.8-.5,2-.6,2.6-.5,1.8-.6,15.8-.2,18.7.2,1.3.5,3.2.6,4.1.3,2.3,1.1,5.7,1.9,8.5.2.9.6,2,.7,2.5,1.5,5,5.7,13.1,8.8,16.7.4.5,1.2,1.4,1.7,2.1.5.6,1.6,1.8,2.3,2.6,1.9,2,2.2,2.5,2.2,3.5,0,2.6-3.1,4.1-5.2,2.4-2.8-2.2-7.2-7.8-10.9-13.8-.8-1.3-3.3-6.6-3.5-7.3,0-.4-.3-.9-.4-.9s-.3-.4-.3-.6-.2-.9-.4-1.3c-.4-.9-.8-2.1-1.8-5.6-.4-1.5-.9-3.8-1.9-8.9-.8-4.1-.8-19.8,0-23.6,1.1-5.2,2.2-9,4-12.9.4-.8.8-1.7.9-2.1s.7-1.4,1.3-2.3,1.1-2,1.3-2.3.6-1.1,1-1.7.8-1.2.8-1.3c0-.4,2.7-3.6,3.8-4.6,1.4-1.2,2.7-1.4,4.2-.6v-.3h0ZM162.2,106.7c3.7,1.1,6.6,3.8,8.6,7.8,1.5,3.1,1.8,4,2.4,6.5.6,2.4,1.1,8.1.9,9.3-.3,1.5-1.3,2.3-3,2.3s-1.5,0-2.3-1.1c-.9-1-.9-1.3-1.1-3.8-.4-7.6-3.3-13.6-7.2-14.8-4.5-1.5-9.9,4.9-13.3,15.6-.3,1.1-.6,2.6-1.2,6.7-.1,1.1-.3,3.7-.3,5.9,0,3.6,0,4.1-.6,4.8-1.3,1.6-3.7,1.5-5.1,0-.6-.6-.6-1-.5-6.3,0-6.6.7-10.6,2.5-15.7.6-1.8,2.8-6.4,3.8-7.8.3-.5.6-1.1.7-1.4.1-.3.3-.5.4-.5s.3-.2.4-.5c.4-1.3,4.5-5,6.5-5.9,3.2-1.5,5.7-1.8,8.3-1h.1ZM146.5,152.6c.6.5,1,1.1,1,1.4,0,.5,1.5,5.5,2.2,7.4,1.8,4.8,3.5,8.6,5.3,11.7.7,1.2,1.3,2.2,1.3,2.3s.9,1.4,1.9,3c2.3,3.4,4.3,5.9,7.4,9.3,2.9,3.1,3.2,3.8,2.4,5.4-.4.9-.9,1.3-1.7,1.5-2.1.7-3.3,0-8-5.4-4.6-5.2-10.2-14.3-13-21.3-.4-1.1-.9-2.2-1.1-2.5s-.7-1.9-1.2-3.5-1.1-3.5-1.4-4.2c-.6-1.8-.6-4.1.1-4.8,1.3-1.4,3.2-1.5,4.6-.2h.2Z"/>
    <path class="cls-2" d="M157.1,129.6c-.3.6-.6,1.7-.8,2.5-.1.7-.4,1.8-.6,2.5-.4,1.6-.4,9.2,0,11.4.1,1,.4,2.5.6,3.4.1.9.4,2.1.5,2.6,1.1,3.8,2.3,7.2,2.6,7.9.2.4.6,1.2.8,1.8.9,2.1,2,4.3,2.9,5.7.5.8,1,1.7,1.1,1.9.6,1.2,4.5,6.7,6.5,8.9,1.8,2.1,6.6,6.9,7,6.9s.8-.7,1.4-1.5l1.1-1.5-2.4-2.6c-5.3-5.5-11.4-13.2-12.6-15.9-.1-.2-.5-1-.9-1.6-2.4-4.2-3.4-6.7-4.7-11.3-.7-2.5-1.1-7.1-1.2-14.8,0-4.2-.2-7.1-.4-7.3s-.5,0-.8.8v.2h-.1Z"/>
    <path class="cls-2" d="M33.2,152.8l-2.5.2-.2,3.7c-.3,4.1,0,14.9.4,18,.1,1.1.4,3.2.6,4.5.1,1.3.4,3.1.6,3.8.3,1.4.8,3.9,1.2,6.2,0,.8.4,1.8.6,2.3,0,.5.5,1.8.8,2.8.9,3.3,2.8,9.4,3.6,11.3,0,.3.6,1.3.9,2.2.9,2.2.9,2.3,3,6.6,1.6,3.3,5.3,10,5.8,10.4,0,0,.9,1.2,1.8,2.5,4.5,6.7,12.9,15.5,19.3,20.3,2,1.5,3.6,2.7,3.7,2.7s1,.6,2,1.3,2.1,1.3,2.3,1.5.9.5,1.5.9c3.4,2.1,11.9,6,15.7,7.3,1,.3,2.2.8,2.7,1s1.1.4,1.3.4.9.2,1.6.4c3.7,1.3,8.7,2.5,14.5,3.5,1.4.2,3.3.6,4.4.8s3.2.4,4.8.6,4.3.4,5.9.6c1.6.2,6.2.3,10.2.3h7.2v-7.6c0-4.1-.1-8.8-.3-10.3-.1-1.5-.4-4-.5-5.6-.1-1.5-.4-3.7-.6-4.8-1.1-6.5-1.8-10.4-2.5-12.5-.2-.8-.4-1.6-.4-1.8,0-.8-2.9-9.9-3.3-10.3-.1-.2-.2-.5-.2-.7,0-.4-.3-1.2-2.5-6.2-.9-2.1-2.4-5-3.9-7.8-1.1-1.9-5.6-8.9-6.2-9.6-.2-.2-1.1-1.3-2-2.4-6-7.7-15.3-15.7-24.2-20.9-1.4-.9-2.8-1.6-3.1-1.8-1.6-1-10.1-5-10.6-5s-.5-.1-.7-.2c-.7-.6-8.8-3.3-13.6-4.6-1.1-.3-2.3-.6-2.8-.8s-1.6-.4-2.3-.6c-2.3-.4-4.8-.9-6.2-1.2-.7-.1-2.5-.4-3.8-.6-1.4-.1-3.3-.4-4.4-.6-2.3-.4-15.7-.6-19.1-.3h-.5,0Z"/>
    <path class="cls-2" d="M274.7,152.8c-4.5.3-11.6,1.3-16,2.3-2.8.6-7.1,1.6-8.1,1.9-3.8,1.1-7.2,2.2-8.2,2.6-.6.2-1.6.6-2.2.8-5.3,2-13.9,6.1-17.5,8.4-.5.3-1.1.7-1.3.8-1.3.6-8.7,6.1-11.3,8.3-4.9,4.3-9.9,9.7-13.3,14.3-1,1.4-1.9,2.6-2.1,2.8-.1.2-.6.9-1.1,1.7s-1.1,1.8-1.3,2.2c-.3.4-.6,1.1-.8,1.4s-.8,1.4-1.3,2.3c-1.1,2-3,5.7-4.4,9.1-.2.5-.6,1.3-.8,2-.3.6-.5,1.3-.5,1.5s-.1.5-.3.6c-.1,0-.4.6-.5,1.1,0,.5-.4,1.3-.6,1.8-.8,2-2.6,8.4-3.5,12.6-.3,1.3-.6,2.9-.8,3.7-.2.7-.4,2.1-.5,3.1-.3,1.9-.8,5.7-1.2,8.8-.4,2.6-1,21-.7,21.7.2.5.9.5,9.2.4,5,0,10.3-.3,11.8-.5,11.2-1.4,15-2.1,24.8-4.7,1.8-.5,6.7-2.2,7-2.4.2-.1.5-.2.7-.2s.9-.2,1.5-.5c.6-.2,1.5-.6,2.1-.9,5.7-2.5,10.6-5,14.9-7.8,1.5-.9,2.8-1.8,2.9-1.9.2-.1.9-.7,1.7-1.2.7-.5,1.5-1.1,1.8-1.3.2-.2,1.4-1.2,2.6-2.1,2.2-1.7,8.9-8.3,10.8-10.6,2.5-3,8.8-11.8,8.8-12.3s.5-1,1.1-2,2-3.7,3.1-6c2.1-4.4,2.2-4.5,3.1-6.9.4-.9.8-2,1-2.6.2-.5.4-1.1.4-1.2s.2-.7.4-1.3c.7-1.8,1.1-3.1,2.1-6.5.4-1.6.7-2.7,1.6-6.2.7-2.9,1.6-8.1,2.4-13.6.2-1.4.4-7,.5-12.6.1-8.7,0-10.2-.3-10.5-.6-.4-12.5-.7-17.7-.4h0Z"/>
  </g>
</svg>