<?xml version="1.0" encoding="UTF-8"?>
<svg id="Layer_1" data-name="Layer 1" xmlns="http://www.w3.org/2000/svg" viewBox="0 0 323.258 323.269">
  <defs>
    <style>
      .cls-1 {
        fill: #d8424e;
      }

      .cls-1, .cls-2, .cls-3, .cls-4, .cls-5, .cls-6, .cls-7, .cls-8, .cls-9, .cls-10, .cls-11, .cls-12 {
        stroke-width: 0px;
      }

      .cls-2 {
        fill: #f9b233;
      }

      .cls-3 {
        fill: #3aaa35;
      }

      .cls-4 {
        fill: #1daecd;
      }

      .cls-5 {
        fill: #FFFFFF;
      }

      .cls-6 {
        fill: #4bbed5;
      }

      .cls-7 {
        fill: #008d36;
      }

      .cls-8 {
        fill: #2fac66;
      }

      .cls-9 {
        fill: #e30613;
      }

      .cls-10 {
        fill: #0098c1;
      }

      .cls-11 {
        fill: #e94e1b;
      }

      .cls-12 {
        fill: #0b0b0b;
      }
    </style>
  </defs>
    <rect class="cls-5" x="0" y="0" width="330" height="330" rx="80" ry="80"/>
  <g>
    <path class="cls-12" d="M103.98,202.829c-3.218,4.988-7.267,15.46-9.54,21.353-3.289,8.524-10.547,19.397,2.499,24.078,22.146-1.414,133.652,1.803,142.199.454,9.373-1.479,10.339-8.774,7.95-16.355-1.786-5.669-9.716-20.303-12.721-26.804-7.398-16.006-14.737-32.211-22.715-47.93-4.396-8.661-16.363-32.245-20.444-38.162-.889-1.288-5.622-5.268-5.906-6.36-.751-2.884.566-39.256,0-47.702h14.084c1.436,14.083-3.783,6.793-4.997,9.54-.643,1.454-.444,30.275,0,31.802.144.494,3.874,2.967,6.36,6.815,2.898,4.486,10.726,20.752,14.084,27.259,6.039,11.703,42.029,84.993,43.159,91.316,2.082,11.641-3.493,23.461-16.355,23.851H98.528c-17.435.646-21.096-13.89-16.809-28.394,4.414-14.934,44.308-96.678,54.063-118.12-.784-4.405,1.024-33.99,0-35.436-1.418-2.002-6.94,4.818-5.452-8.632h14.992c-.7,10.705.937,40.383,0,46.34-.777,4.941-37.263,78.348-41.342,91.089Z"/>
    <path class="cls-12" d="M128.74,50.636c3.473-.704,67.392-.669,70.872,0,4.236.814,7.615,7.096,2.726,9.54-10.704-.745-71.773.976-75.415,0-4.311-1.155-2.993-8.566,1.817-9.54Z"/>
    <path class="cls-11" d="M193.706,147.403c8.352-.741,10.21,11.84,2.726,13.175-10.152,1.81-10.837-12.455-2.726-13.175Z"/>
    <path class="cls-1" d="M165.993,96.975c11.423-2.268,11.127,14.93,0,12.721-6.099-1.211-6.099-11.509,0-12.721Z"/>
    <path class="cls-1" d="M185.983,173.753c8.78-1.228,9.637,12.194,2.272,13.175-8.798,1.172-9.587-12.152-2.272-13.175Z"/>
    <path class="cls-2" d="M191.662,130.14c-8.003-4.277-5.966,9.149,0,4.316v-4.316c5.94,7.935-6.452,13.778-9.995,7.496-3.562-6.317,5.243-13.843,9.995-7.496Z"/>
    <path class="cls-9" d="M175.761,138.317c-8.814,3.134,2.339,13.458,3.634,4.089,1.866,10.628-13.87,10.045-11.812-.227.61-3.043,4.637-5.043,8.178-3.862Z"/>
    <g>
      <path class="cls-2" d="M156.226,144.678c-12.661,1.127,1.057,16.344,2.272,2.726,3.504,11.409-14.013,11.789-11.812.681.687-3.47,5.576-5.614,9.54-3.407Z"/>
      <path class="cls-2" d="M156.226,144.678c1.03.573,1.927,1.604,2.272,2.726-1.214,13.618-14.932-1.599-2.272-2.726Z"/>
    </g>
    <g>
      <path class="cls-8" d="M154.863,119.236c-9.139,2.9.393,13.376,4.089,4.543-3.785,18.822-23.143-4.571-4.089-4.543Z"/>
      <path class="cls-8" d="M158.951,123.779c-3.696,8.833-13.227-1.643-4.089-4.543,2.092.156,3.893,2.685,4.089,4.543Z"/>
    </g>
    <path class="cls-9" d="M179.395,142.406c-1.295,9.369-12.449-.955-3.634-4.089,1.76.587,3.326,2.33,3.634,4.089Z"/>
    <g>
      <path class="cls-6" d="M234.367,205.555c3.005,6.501,10.934,21.135,12.721,26.804-1.714,4.008-3.79,7.005-8.405,7.723-7.848,1.222-32.236-.518-42.024-.454-14.929-19.022-32.197-36.335-46.34-55.88,27.111,5.802,56.456,16.16,84.047,21.807Z"/>
      <path class="cls-10" d="M196.659,239.628c9.788-.063,34.176,1.676,42.024.454,4.615-.719,6.691-3.715,8.405-7.723,2.389,7.581,1.423,14.876-7.95,16.355-8.547,1.349-120.052-1.869-142.199-.454-13.046-4.681-5.788-15.554-2.499-24.078l.681-.454c2.517,5.847,1.394,15.004,9.54,16.355,7.003,1.161,77.796-.362,91.998-.454Z"/>
      <path class="cls-4" d="M150.32,183.748c14.143,19.545,31.41,36.858,46.34,55.88-14.201.092-84.995,1.616-91.998.454-8.146-1.351-7.024-10.508-9.54-16.355l-.681.454c2.273-5.892,6.322-16.364,9.54-21.353,3.908-6.057,13.943-16.421,20.671-19.081,10.032-3.966,15.979-2.074,25.668,0Z"/>
    </g>
    <path class="cls-2" d="M191.662,130.14v4.316c-5.966,4.833-8.003-8.593,0-4.316Z"/>
    <g>
      <path class="cls-3" d="M183.03,160.578c-2.297-4.449-9.93,1.598-2.953,5.452,3.548.955,4.293-2.855,2.953-5.452,4.746,7.534-4.457,12.853-9.086,7.95-6.067-6.425,4.116-15.842,9.086-7.95Z"/>
      <path class="cls-3" d="M183.03,160.578c1.34,2.596.595,6.407-2.953,5.452-6.977-3.853.656-9.9,2.953-5.452Z"/>
    </g>
    <g>
      <path class="cls-7" d="M158.27,168.302c8.822-1.328,9.042,11.406,2.726,12.721-8.927,1.858-9.868-11.645-2.726-12.721Z"/>
      <path class="cls-7" d="M159.633,169.665l3.18.454c6.634,10.013-9.348,7.894-3.18-.454Z"/>
    </g>
    <g>
      <path class="cls-11" d="M136.009,159.215c10.678-1.152,7.164,16.809-2.272,11.812-5.059-2.679-3.303-11.211,2.272-11.812Z"/>
      <path class="cls-11" d="M136.917,160.578h2.726c9.039,9.674-10.43,9.995-2.726,0Z"/>
    </g>
  </g>
</svg>