<?xml version="1.0" encoding="UTF-8"?>
<svg id="Layer_1" data-name="Layer 1" xmlns="http://www.w3.org/2000/svg" viewBox="-75 -50 250 250">
  <defs>
    <style>
      .cls-1 {
        fill: #010101;
        stroke-width: 0px;
      }
    </style>
  </defs>
  <path class="cls-1" d="M25.49,1.62c-3.08-2.4-7.46-2.11-10.24.65L2.28,15.24c-2.76,2.76-3.05,7.13-.68,10.24l25.93,33.71c1.46,1.91,3.76,3.05,6.16,3.05h17.54l35.33,35.33c-4.76,9.4-3.24,21.2,4.64,29.04l36.3,36.3c4.05,4.05,10.63,4.05,14.68,0l20.75-20.75c4.05-4.05,4.05-10.63,0-14.68l-36.3-36.3c-7.84-7.84-19.64-9.4-29.04-4.64l-35.33-35.33v-17.5c0-2.43-1.13-4.7-3.05-6.16L25.49,1.62ZM6.46,128.4C2.34,132.52,0,138.12,0,143.96c0,12.16,9.85,22.01,22.01,22.01,5.83,0,11.44-2.33,15.56-6.45l38.18-38.18c-2.53-6.77-2.92-14.13-1.17-21.1l-20-20L6.46,128.4ZM165.97,46.68c0-3.4-.36-6.71-1.04-9.89-.78-3.63-5.22-4.57-7.84-1.94l-20.71,20.71c-.97.97-2.3,1.52-3.66,1.52h-18.61c-2.85,0-5.19-2.33-5.19-5.19v-18.64c0-1.36.55-2.69,1.52-3.66l20.71-20.71c2.63-2.63,1.69-7.07-1.94-7.84C126,.36,122.7,0,119.3,0,93.53,0,72.62,20.91,72.62,46.68v.26l27.65,27.65c11.67-2.95,24.57.16,33.71,9.3l5.09,5.09c15.88-7.46,26.9-23.6,26.9-42.3ZM18.16,140.04c0-4.3,3.48-7.78,7.78-7.78s7.78,3.48,7.78,7.78-3.48,7.78-7.78,7.78-7.78-3.48-7.78-7.78Z"/>
</svg>