<?xml version="1.0" encoding="UTF-8"?>
<svg id="Layer_1" data-name="Layer 1" xmlns="http://www.w3.org/2000/svg" viewBox="0 0 323.269 323.269">
  <defs>
    <style>
      .cls-1 {
        fill: #706f6f;
        stroke: #1d1d1b;
        stroke-width: 6px;
      }

      .cls-1, .cls-2, .cls-3, .cls-4, .cls-5, .cls-6, .cls-7, .cls-8, .cls-9, .cls-10, .cls-11 {
        stroke-miterlimit: 10;
      }

      .cls-12, .cls-5 {
        fill: #1e1e1c;
      }

      .cls-12, .cls-13, .cls-14 {
        stroke-width: 0px;
      }

      .cls-2 {
        fill: #fff;
      }

      .cls-2, .cls-3, .cls-4, .cls-5, .cls-6, .cls-7, .cls-8, .cls-9, .cls-10, .cls-11 {
        stroke: #1e1e1c;
      }

      .cls-3 {
        fill: #f8d351;
      }

      .cls-4 {
        fill: #f18732;
      }

      .cls-6 {
        fill: #ca9e67;
      }

      .cls-7 {
        fill: #f8f1a1;
      }

      .cls-13 {
        fill: #dd6767;
      }

      .cls-14 {
        fill: #f2bc4c;
      }

      .cls-8 {
        fill: #b72525;
      }

      .cls-9 {
        fill: #d5edf9;
      }

      .cls-10 {
        fill: none;
      }

      .cls-11 {
        fill: #878787;
      }
    </style>
  </defs>
  <rect class="cls-1" x="3" y="3" width="317.269" height="317.269"/>
  <g>
    <path class="cls-11" d="M139.957,182.709c-16.221-12.266-61.043-52.502-82.909-77.12-3.697-4.127-12.094-13.899-16.507-12.18-2.637,1.032-3.382,6.018-2.866,9.773.56,3.418,1.969,6.64,4.098,9.371,11.865,15.991,48.719,49.035,52.703,52.502,14.329,12.896,21.551,19.316,23.901,21.838,9.744,10.317,18.542,21.694,24.962,20.462,1.704-.371,3.259-1.239,4.471-2.493,2.021-2.211,3.055-5.149,2.866-8.139-.602-6.42-8.282-12.151-10.718-14.014Z"/>
    <path class="cls-6" d="M39.595,109.142c2.994.227,5.958-.73,8.254-2.665.831-.745,4.041-3.64,3.152-6.907-.659-2.436-3.324-3.783-6.964-5.732-12.782-7.251-16.364-11.205-17.367-10.059s1.92,4.671,9.171,18.284c1.634,2.923,2.895,5.416,3.754,7.079Z"/>
    <path class="cls-5" d="M32.259,87.247c0,.659-.172,1.462-.716,1.634-1.576.459-5.388-4.585-4.901-5.33,0-.201.602-.201,2.006.516,1.714.28,3.117,1.516,3.611,3.181Z"/>
    <path class="cls-4" d="M181.197,62.601c5.115.406,10.204,1.085,15.246,2.035,6.919,1.206,13.718,3.018,20.319,5.416,10.745,4.101,20.622,10.187,29.117,17.94,7.447,7.022,13.632,15.271,18.284,24.388,4.545,9.698,7.838,19.935,9.801,30.464.679,2.67.679,5.469,0,8.139-1,2.907-2.612,5.565-4.729,7.795,2.076-2.246,4.606-4.024,7.423-5.216,1.154-.621,2.513-.735,3.754-.315,1.805.802,2.321,3.21,2.665,4.671.385,1.964.434,3.98.143,5.961-.215,3.752.261,7.511,1.404,11.091,1.519,6.42,3.353,7.423,5.159,15.16.45,1.881.718,3.8.802,5.732.284,2.428.009,4.888-.802,7.193-.648,1.59-1.625,3.026-2.866,4.213-3.124,3.124-2.579,4.213-8.598,13.126-7.337,11.205-7.738,8.769-12.81,17.195-1.032,1.662-2.465,4.155-3.296,3.898s-.716-4.327-.315-6.878c.929-4.255,2.566-8.324,4.843-12.037,6.677-13.298,3.496-8.598,6.735-14.559,1.654-2.26,2.528-4.995,2.493-7.795-.386-2.271-1.299-4.421-2.665-6.276-1.261-1.863-1.662-1.72-3.267-3.898-1.419-1.679-2.482-3.629-3.124-5.732-.774-3.095.545-3.812-.172-7.193-.573-2.866-2.207-5.732-3.124-5.474-.459,0-.63.946-1.089,3.926-.63,3.984-.946,5.961-1.261,8.282-.262,2.525-.674,5.032-1.232,7.509-.425,2.016-1.17,3.951-2.207,5.732-1.72,2.866-3.668,3.296-7.337,5.732-5.245,3.324-4.213,4.041-12.352,10.03-3.267,2.379-2.866,1.863-6.735,4.671-7.021,4.815-9.658,7.537-10.231,6.993s3.267-6.878,4.213-8.282c2.779-4.275,6.028-8.226,9.687-11.779,6.19-6.018,8.598-6.19,10.776-10.804.923-2.371,1.604-4.829,2.035-7.337.229-.974,0-.659.946-11.263,0-.716.172-2.207-.487-2.493s-1.576,1.433-3.754,2.035-3.296-.487-4.041.315,0,1.777,0,3.439c-.236,1.954-1.124,3.772-2.522,5.159-2.674,3.143-5.839,5.834-9.371,7.967-4.184,2.579-7.165,4.069-12.037,6.563l-11.463,5.961c-11.75,6.162-13.584,7.852-27.827,15.476-4.987,2.665-7.537,4.012-10.317,5.302-3.382,1.576-5.732,2.551-10.317,4.843-2.136.961-4.171,2.132-6.076,3.496-1.826,1.712-3.739,3.329-5.732,4.843-2.866,1.92-3.869,2.092-4.7,2.035-1.472-.151-2.824-.884-3.754-2.035-1.062-1.984-1.178-4.341-.315-6.419,3.296-11.836.401-11.005,5.445-25.449,1.832-5.272,3.976-10.43,6.42-15.447,5.13-10.374,7.795-15.733,13.641-20.548,3.353-2.866,7.05-4.815,6.677-5.732s-4.929.373-6.42.774c-13.355,3.64-42.672,4.929-58.205-6.334-1.748-1.29-6.276-4.872-7.451-3.869-.688.602,0,2.379,1.032,5.159.344,1.089,1.089,4.499,2.551,11.291,1.691,7.738.602,7.365,2.321,15.963.774,3.812,1.92,8.598,2.579,11.291.778,2.826,1.381,5.697,1.805,8.598.306,2.989.392,5.997.258,8.999,0,7.509-.831,8.999-1.805,10.03-.898,1.081-2.208,1.736-3.611,1.805-1.92,0-3.238-1.834-5.13-4.614-4.815-7.107-5.101-8.798-7.193-11.062-2.59-2.488-5.779-4.264-9.257-5.159-16.507-6.448-22.927-34.104-25.449-33.158-.373,0-.229.688-.516,5.416-.159,3.35-.503,6.689-1.032,10.002-.602,3.296-1.318,7.394-2.579,7.48s-2.551-4.127-3.095-5.932c-1.071-3.578-1.583-7.299-1.519-11.034.229-9.601,3.124-10.661,2.551-17.998-.315-4.098-1.204-3.439-2.321-9.773-1.332-5.423-1.518-11.065-.545-16.565,1.177-5.237,3.651-10.095,7.193-14.129,3.066-3.582,5.216-6.076,8.741-6.677,3.984-.688,6.849,1.576,8.741-.258,1.021-1.429,1.562-3.145,1.548-4.901.12-1.191.12-2.391,0-3.582-.126-2.916-.04-5.837.258-8.741.487-6.534,5.732-13.842,11.463-18.255,2.707-2.556,6.105-4.26,9.773-4.901,6.104-.573,13.641,3.009,15.418,3.869,1.063.561,2.188.994,3.353,1.29,2.873.363,5.788.188,8.598-.516,2.139-.106,4.248-.551,6.248-1.318,1.763-1.016,3.264-2.429,4.385-4.127,2.235-2.866,5.101-4.07,10.804-6.677,13.469-6.133,33.187-4.614,39.405-4.155Z"/>
    <path class="cls-7" d="M243.328,97.536c-3.984.487-7.738,5.531-7.652,10.231-.035,2.109.721,4.154,2.121,5.732,1.159,1.174,2.631,1.99,4.241,2.35,3.783,1.06,10.604,1.318,12.581-1.92,2.894-4.729-4.442-17.252-11.291-16.393Z"/>
    <path class="cls-8" d="M249.375,60.165c-4.099,2.198-7.361,5.682-9.285,9.916-4.023,5.787-6.11,12.699-5.961,19.746.317,3.99,1.397,7.881,3.181,11.463,3.963,9.88,11.334,18.013,20.777,22.927,5.39,3.111,11.655,4.36,17.826,3.554,6.192-1.183,11.748-4.562,15.648-9.515,6.047-7.938,5.13-17.195,4.557-23.156-.459-4.643-2.235-22.698-16.851-31.524-6.838-3.704-14.6-5.356-22.354-4.757-2.58-.1-5.151.359-7.537,1.347Z"/>
    <path class="cls-8" d="M143.454,33.054c-2.607,1.593-4.939,3.596-6.907,5.932-.974,1.146-4.012,4.901-6.935,15.246-2.866,9.715-4.155,14.587-1.777,17.625.545.745,2.436,2.866,12.466,2.866,9.663.107,19.263-1.574,28.315-4.958,10.804-3.898,15.59-7.623,17.797-11.463.995-1.619,1.612-3.441,1.805-5.33.218-3.026-.546-6.041-2.178-8.598-2.579-4.471-6.391-6.591-11.091-9.113-5.732-3.152-10.489-5.732-17.195-5.732-5.002-.182-9.956,1.039-14.301,3.525Z"/>
    <path class="cls-9" d="M174.949,86.044c-3.259,1.813-6.17,4.191-8.598,7.021-2.594,2.276-4.826,4.933-6.62,7.881-2.012,3.358-3.182,7.154-3.41,11.062-.074,5.647,1.809,11.146,5.33,15.562,3.941,5.681,9.929,9.615,16.708,10.976,6.303.957,12.74-.408,18.112-3.84,4.424-2.796,8.009-6.738,10.374-11.406,3.282-5.507,4.634-11.951,3.84-18.313-.461-3.664-1.777-7.168-3.84-10.231-4.36-5.767-10.921-9.462-18.112-10.202-4.64-.917-9.448-.397-13.785,1.49Z"/>
    <path class="cls-5" d="M167.727,120.749c-.573-.373,1.318-4.843,4.241-8.598,2.007-2.992,4.818-5.357,8.11-6.821,1.66-.782,3.511-1.071,5.33-.831,1.855.308,3.562,1.202,4.872,2.551,1.634,1.662,2.035,3.812,2.866,8.082.881,3.553,1.028,7.25.43,10.862-.459,2.207-1.433,5.187-2.121,5.13s-.545-4.471-2.579-11.291c-.337-2.046-1.346-3.921-2.866-5.33-1.804-1.406-4.093-2.035-6.362-1.748-2.476.512-4.766,1.691-6.62,3.41-3.439,2.78-4.901,4.872-5.302,4.585Z"/>
    <path class="cls-9" d="M87.197,75.039c-3.458,1.434-6.439,3.819-8.598,6.878-3.465,3.48-6.16,7.649-7.91,12.237-2.072,6.517-1.798,13.553.774,19.889,2.687,6.924,8.267,12.327,15.275,14.788,5.043,1.473,10.435,1.2,15.304-.774,5.716-2.506,10.463-6.8,13.527-12.237,2.124-2.912,3.68-6.198,4.585-9.687,1.317-4.699,1.227-9.681-.258-14.329-2.586-6.661-7.753-11.994-14.329-14.788-3.747-1.786-7.829-2.763-11.979-2.866-2.167-.096-4.332.205-6.391.888Z"/>
    <path class="cls-5" d="M82.955,115.619c.459,0,.802-2.866,3.41-7.881,2.321-4.585,3.611-5.416,4.671-5.732,1.654-.418,3.406-.193,4.901.63,1.999,1.19,3.565,2.987,4.471,5.13,2.035,3.611,2.321,6.219,2.866,6.162s.63-3.496.201-6.821c-.229-3.577-1.406-7.029-3.41-10.002-1.3-2.359-3.539-4.057-6.162-4.671-1.314-.171-2.65.049-3.84.63-1.204.545-3.496,1.977-5.531,7.881-2.637,7.308-2.35,14.673-1.576,14.673Z"/>
    <path class="cls-5" d="M127.061,138.087c-1.748.516-3.238,1.891-5.732,7.451-3.468,7.365-5.187,11.034-3.582,13.785.946,1.634,2.608,2.149,5.732,3.238,3.86,1.213,7.937,1.575,11.951,1.06,5.245-.401,8.454-.659,9.572-2.866.487-.917.602-2.178-1.576-7.021-3.324-7.451-6.018-13.498-11.836-15.418-1.444-.569-3.034-.649-4.528-.229Z"/>
    <path class="cls-9" d="M148.985,159.495c1.23-.94,2.132-2.244,2.579-3.726,1.777-6.076-4.385-16.02-11.463-15.59-3.767.486-7.017,2.88-8.598,6.334.229.315,2.321-1.691,3.726-.974,2.436,1.204-1.261,8.196,1.949,12.323,3.054,3.268,7.98,3.95,11.807,1.634Z"/>
    <path class="cls-9" d="M112.273,158.607c-1.081-.992-1.831-2.293-2.149-3.726-1.462-6.047,3.611-15.991,9.543-15.562,3.323.717,6.029,3.119,7.136,6.334-.201.315-1.92-1.691-3.095-.974-2.006,1.204,1.032,8.168-1.634,12.323-2.151,3.131-6.432,3.926-9.564,1.776-.08-.055-.16-.112-.238-.171Z"/>
    <path class="cls-9" d="M147.351,154.136c1.032-.63,2.866-1.834,3.095-3.582,0-2.436-3.697-4.643-6.821-5.015-2.516-.548-5.131.32-6.821,2.264-1.257,2.023-1.131,4.613.315,6.505,2.436,2.895,7.652,1.433,10.231-.172Z"/>
    <path class="cls-9" d="M112.273,151.213c.332,1.175,1.074,2.192,2.092,2.866,2.316,1.838,5.573,1.908,7.967.172,1.807-1.684,2.368-4.318,1.404-6.591-1.273-2.894-4.529-4.355-7.537-3.382-2.854,1.011-4.528,3.968-3.926,6.935Z"/>
    <path class="cls-4" d="M125.771,130.951c-2.513.328-4.938,1.146-7.136,2.407-2.243,1.185-4.102,2.984-5.359,5.187-1.363,2.181-1.728,4.841-1.003,7.308,1.412,2.384,3.782,4.045,6.505,4.557,2.866.946,4.471.946,16.221.487,5.531-.229,8.34-.373,10.546-2.293,1.359-1.082,2.358-2.551,2.866-4.213.443-1.652.383-3.398-.172-5.015-1.949-6.076-10.403-8.082-12.008-8.426-3.445-.763-7.015-.763-10.46,0Z"/>
    <path class="cls-4" d="M61.519,113.556c-5.904.974-9.543,6.334-11.148,8.598-11.463,16.909-.459,42.329,2.866,49.837,3.535,7.973,8.228,15.38,13.928,21.981,7.05,8.196,10.604,12.294,15.476,14.329,2.513.842,4.758,2.335,6.505,4.327,1.273,1.919,2.303,3.989,3.066,6.162,2.293,4.671,4.098,8.311,7.107,8.97,1.751.263,3.534-.181,4.958-1.232,4.442-3.267,2.866-12.237-.315-29.088-5.474-29.146-6.563-33.645-7.738-38.087-3.382-13.011-5.159-19.631-8.34-25.076-1.404-2.35-13.469-22.869-26.366-20.72Z"/>
    <path class="cls-10" d="M242.354,157.46c5.579-.727,11.047-2.142,16.278-4.213,4.987-2.006,8.282-4.012,9.457-2.866s-1.691,5.302-3.41,13.498c-.535,2.511-.87,5.06-1.003,7.623"/>
    <path class="cls-10" d="M241.236,149.522c3.925-1.572,7.365-4.152,9.973-7.48,4.049-5.512,5.712-12.421,4.614-19.173"/>
    <path class="cls-10" d="M210.83,111.836c2.528,1.91,4.635,4.319,6.19,7.079.844,1.509,1.527,3.104,2.035,4.757.688,2.035,1.149,4.14,1.376,6.276"/>
    <path class="cls-10" d="M126.602,77.561c16.485.502,32.81,3.398,48.461,8.598"/>
    <path class="cls-10" d="M88.974,212.284c-.623-4.19-.623-8.449,0-12.638.802-4.843,1.805-5.732,2.264-6.047,2.522-1.834,7.48-.229,12.581,3.869"/>
    <path class="cls-2" d="M28.103,252.922c1.548-6.248,10.919-4.843,27.741-15.59,4.74-3.108,9.233-6.577,13.441-10.374,7.364-6.531,14.152-13.684,20.29-21.379,12.294-14.845,11.463-16.679,20.605-25.793,5.767-6.544,13.269-11.323,21.637-13.785,3.066-.774,8.769-2.121,12.495.86,2.264,1.748,1.376,3.181,4.471,7.996,2.866,4.241,4.327,4.557,7.623,9.715s2.866,6.162,2.637,6.62c-.917,3.267-6.649,4.155-8.024,4.413-13.355,2.579-25.506,25.477-50.869,55.34-8.901,10.188-18.547,19.7-28.859,28.458-11.607,10.46-17.654,14.845-22.497,13.011-4.356-1.605-3.525-6.677-9.944-19.316-7.021-13.813-11.922-15.504-10.747-20.176Z"/>
    <path class="cls-3" d="M267.315,75.497c-6.62,3.525-5.56,12.524-5.502,12.954.248,3.324,1.987,6.358,4.729,8.254,3.274,1.518,7.076,1.379,10.231-.373,2.866-1.36,5.109-3.757,6.276-6.706,1.186-3.061,1.041-6.479-.401-9.429-3.109-5.318-9.777-7.362-15.332-4.7Z"/>
    <path class="cls-3" d="M147.609,70.167c5.245,5.388,13.584,1.805,13.985,1.634,3.123-1.164,5.548-3.684,6.591-6.849.548-3.568-.67-7.179-3.267-9.687-2.087-2.384-5.012-3.872-8.168-4.155-3.274-.279-6.515.822-8.941,3.038-4.248,4.465-4.335,11.45-.201,16.02Z"/>
    <path class="cls-3" d="M273.104,117.912c.081-3.091-1.261-6.049-3.64-8.024-4.007-3.631-9.935-4.169-14.53-1.318-2.866,2.063-5.474,6.276-4.299,9.572.659,1.863,2.637,2.866,6.591,4.958,4.442,2.293,6.649,3.439,8.941,2.866,3.771-.965,6.54-4.18,6.935-8.053Z"/>
    <path class="cls-3" d="M242.067,70.081c-1.548,0-2.493,2.35-4.27,6.62s-2.579,6.076-1.662,7.251c1.376,1.777,6.104,1.347,8.598-1.318,1.437-1.752,2.034-4.046,1.634-6.276-.373-2.895-2.264-6.362-4.299-6.276Z"/>
    <path class="cls-3" d="M170.392,33.57c3.525,1.519,10.976,4.671,11.836,9.085.376,1.682-.318,3.423-1.748,4.385-1.37.695-2.92.955-4.442.745-3.611-.201-10.89-1.891-13.498-6.677-1.977-3.668-.716-8.282,2.551-8.884,1.861-.08,3.705.389,5.302,1.347Z"/>
    <path class="cls-3" d="M141.677,35.605c-2.407-.201-4.213,2.293-6.047,4.815-1.232,1.691-3.496,4.843-2.436,6.448s4.528.831,6.448.401c2.866-.602,5.932-1.232,6.878-3.611.896-3.545-1.251-7.145-4.795-8.041-.016-.004-.032-.008-.048-.012Z"/>
    <path class="cls-12" d="M54.584,270.919c1.805,3.066,2.35,4.241,1.462,5.044-1.275.998-2.971,1.279-4.499.745-1.888-.641-3.53-1.853-4.7-3.468-1.968-2.688-3.416-5.721-4.27-8.941-1.175-4.041-1.347-6.935-.602-7.566.09-.095.197-.172.315-.229.774-.401,1.748.315,2.866,1.863s2.035,3.066,3.554,5.187c.659.802,1.06,1.261,1.175,1.462.359.465.457,1.081.258,1.634-.039.128-.12.238-.229.315-.371.19-.794.251-1.204.172-.554-.074-1.047-.388-1.347-.86l-.43-1.204c-.487-.831-.974-1.634-1.519-2.407s-.917-1.175-1.146-1.175,0,1.519,1.06,4.012c.82,2.035,1.888,3.96,3.181,5.732.796,1.102,1.764,2.07,2.866,2.866,1.146.774,1.92.946,2.264.774s.143-.459-.172-1.089c-.366-.698-.768-1.378-1.204-2.035l-.172-.315c-.659-.688-.63-1.347,0-1.863.153-.119.328-.207.516-.258.524-.228,1.135-.075,1.49.373.31.336.484.775.487,1.232Z"/>
    <path class="cls-12" d="M61.49,265.818c1.863,2.866,2.465,3.984,1.605,4.7-1.324.873-2.983,1.064-4.471.516-1.841-.644-3.467-1.785-4.7-3.296-1.955-2.305-3.436-4.973-4.356-7.852-1.175-3.525-1.376-6.018-.688-6.591l.344-.115c.774-.344,1.72.287,2.866,1.634s2.063,2.637,3.554,4.499c.688.716,1.089,1.089,1.204,1.261.355.41.464.978.287,1.49-.052.105-.131.194-.229.258-.361.188-.775.249-1.175.172-.533-.05-1.022-.32-1.347-.745l-.43-1.089c-.487-.716-1.003-1.404-1.548-2.092s-.917-1.032-1.118-1.003,0,1.29,1.089,3.496c.858,1.825,1.936,3.538,3.21,5.101.817,1.018,1.783,1.907,2.866,2.637,1.146.716,1.891.888,2.235.745s.143-.43-.201-1.003c-.37-.647-.782-1.269-1.232-1.863l-.373-.258c-.659-.63-.659-1.232,0-1.691l.487-.258c.521-.19,1.105-.055,1.49.344.337.235.565.597.63,1.003Z"/>
    <path class="cls-12" d="M57.564,254.269c.384,1.161.914,2.268,1.576,3.296.543.956,1.176,1.858,1.891,2.694,1.487,1.871,3.475,3.282,5.732,4.069.297.138.618.216.946.229.318.017.629.094.917.229.315.172.43.373.401.602-.052.26-.207.488-.43.63-.456.357-1.028.53-1.605.487-.503-.076-.988-.241-1.433-.487-2.496-1.011-4.694-2.638-6.391-4.729-.836-1.042-1.565-2.166-2.178-3.353-.906-1.642-1.645-3.37-2.207-5.159-.287-.688-.459-1.089-.487-1.204-.108-.304-.166-.623-.172-.946-.01-.205.103-.396.287-.487.406-.121.845-.035,1.175.229.518.304.936.752,1.204,1.29.079.138.146.281.201.43.085.299.133.607.143.917.071.441.217.868.43,1.261Z"/>
    <path class="cls-12" d="M71.435,258.281c1.949,2.551,2.608,3.754,1.777,4.471-1.269.919-2.909,1.155-4.385.63-1.786-.555-3.41-1.539-4.729-2.866-1.919-1.857-3.432-4.091-4.442-6.563-1.232-2.866-1.49-5.044-.831-5.732l.315-.201c.716-.401,1.634,0,2.866,1.032s2.035,2.035,3.554,3.554l1.204,1.003c.34.348.461.854.315,1.318-.051.106-.13.195-.229.258-.79.462-1.788.358-2.465-.258,0,0-.172-.344-.43-.888-.496-.59-1.022-1.155-1.576-1.691-.545-.516-.888-.802-1.089-.774s0,1.146,1.118,2.866c.889,1.619,1.977,3.121,3.238,4.471.844.877,1.809,1.63,2.866,2.235,1.146.602,1.891.745,2.235.602s0-.401-.258-.946c-.379-.6-.811-1.166-1.29-1.691l-.229-.201c-.688-.516-.688-1.06,0-1.548l.459-.287c.486-.25,1.074-.182,1.49.172.321.246.511.627.516,1.032Z"/>
    <path class="cls-12" d="M71.865,253.18l2.321,2.149c1.204,1.089,2.092,1.834,2.637,2.436.208.119.401.263.573.43.132.093.216.24.229.401,0,0,0,.287-.229.459-.345.269-.747.455-1.175.545-.444.165-.932.165-1.376,0l-.229-.172s-.143-.229-.229-.487c-.081-.262-.241-.492-.459-.659-.52-.677-1.116-1.293-1.777-1.834-.86-.802-1.519-1.49-1.977-1.92-2.178-1.977-3.984-3.926-5.531-5.33-.247-.298-.537-.559-.86-.774-.324-.215-.605-.486-.831-.802-.242-.374-.353-.817-.315-1.261.004-.299.154-.577.401-.745.496-.243,1.091-.152,1.49.229.467.434.89.914,1.261,1.433,1.913,2.081,3.941,4.052,6.076,5.904Z"/>
    <path class="cls-12" d="M81.695,251.603h.459c.315.172.373.573.143,1.175s-.344.688-.602,1.29c.014.143.014.287,0,.43-.059.384-.228.742-.487,1.032-.299.304-.694.496-1.118.545-.529.115-1.076.115-1.605,0h-.258c-.157-.103-.278-.254-.344-.43-.028-.186-.146-.347-.315-.43-4.265-2.141-7.943-5.289-10.718-9.171l-.43-.373c-.216-.108-.395-.278-.516-.487-.149-.231-.229-.499-.229-.774-.037-.335.091-.666.344-.888.179-.117.388-.176.602-.172.113-.08.202-.189.258-.315.201-.43.401-.831.573-1.261.113-.295.278-.567.487-.802.113-.073.259-.073.373,0,.459,0,.917.516,1.433,1.232.208.268.346.583.401.917.045.11.045.234,0,.344h-.373c-.145.035-.269.128-.344.258-.545.917-.745,1.462-.63,1.634,2.75,3.545,6.281,6.408,10.317,8.368.241-.396.434-.819.573-1.261.082-.281.219-.544.401-.774.201-.143.659-.201,1.605-.086Z"/>
    <path class="cls-12" d="M85.191,245.127c2.063,2.379,2.866,3.754,2.035,4.614-1.13,1.094-2.74,1.537-4.27,1.175-1.726-.305-3.355-1.012-4.757-2.063-1.9-1.373-3.467-3.156-4.585-5.216-1.318-2.379-1.634-4.213-1.032-4.987l.287-.287c.659-.602,1.576-.516,2.723,0s2.006,1.347,3.554,2.407c.42.183.823.403,1.204.659.365.296.513.784.373,1.232-.028.125-.099.237-.201.315-.288.304-.673.497-1.089.545-.431.168-.918.103-1.29-.172-.18-.247-.343-.505-.487-.774-.483-.441-1.001-.844-1.548-1.204-.545-.344-.917-.487-1.089-.401s0,1.032,1.204,2.493c.972,1.273,2.109,2.41,3.382,3.382.873.7,1.837,1.278,2.866,1.72,1.146.459,1.92.545,2.235.315s0-.459-.287-.974c-.407-.559-.868-1.077-1.376-1.548l-.373-.201c-.688-.43-.716-.974,0-1.576.122-.155.267-.29.43-.401.431-.298,1.002-.298,1.433,0,.363.187.609.541.659.946Z"/>
    <path class="cls-12" d="M95.479,238.507c-.344,1.044-.879,2.016-1.576,2.866-.993,1.285-2.401,2.187-3.984,2.551-2.156.41-4.385-.088-6.162-1.376-2.109-1.478-3.445-3.823-3.64-6.391-.465-2.367.132-4.818,1.634-6.706,1.202-1.459,3.046-2.23,4.929-2.063,1.715.117,3.363.713,4.757,1.72,1.246.706,2.246,1.776,2.866,3.066.559,1.148.39,2.518-.43,3.496-.874,1.141-2.422,1.522-3.726.917.436.671.81,1.381,1.118,2.121.335.669.257,1.471-.201,2.063-.976,1.238-2.768,1.456-4.012.487-1.293-.791-2.297-1.977-2.866-3.382-.709-1.263-.914-2.748-.573-4.155.033-.131.103-.251.201-.344.201-.234.473-.395.774-.459.26-.138.571-.138.831,0,.013.066.013.134,0,.201v.573c0,.258-.172.459,0,.602-.026,1.084.318,2.146.974,3.009.45.882,1.122,1.633,1.949,2.178.287.172.487.201.573,0s0-.258,0-.487-.229-.86-.287-1.032c-.131-.342-.315-.661-.545-.946-.317-.416-.694-.782-1.118-1.089-.31-.137-.607-.3-.888-.487-.344-.373-.287-.802,0-1.318.267-.378.649-.659,1.089-.802.545-.229,1.404,0,2.579.688s1.748.659,1.949.344c.394-.569.394-1.322,0-1.891-1.062-1.802-2.931-2.977-5.015-3.152-1.323.072-2.543.735-3.324,1.805-1.145,1.609-1.413,3.683-.716,5.531.356,2.079,1.56,3.917,3.324,5.073.953.605,2.092.849,3.21.688,1.265-.286,2.391-1.006,3.181-2.035.474-.643.753-1.409.802-2.207.079-.213.079-.447,0-.659-.104-.227-.104-.489,0-.716.248-.29.578-.5.946-.602.361-.129.756-.129,1.118,0,.974.287,1.032,1.089.258,2.321Z"/>
    <path class="cls-12" d="M105.653,224.521c-.266,1.112-.743,2.163-1.404,3.095-.919,1.375-2.286,2.388-3.869,2.866-2.087.558-4.311.215-6.133-.946-2.153-1.27-3.586-3.477-3.869-5.961-.51-2.408-.024-4.92,1.347-6.964,1.027-1.67,2.801-2.738,4.757-2.866,1.674-.054,3.324.406,4.729,1.318,1.225.641,2.224,1.641,2.866,2.866.646,1.206.486,2.685-.401,3.726-.809,1.17-2.321,1.623-3.64,1.089.449.674.841,1.383,1.175,2.121.391.653.391,1.468,0,2.121-.873,1.32-2.651,1.683-3.971.811-.004-.003-.008-.006-.013-.008-1.264-.723-2.267-1.826-2.866-3.152-.713-1.239-.958-2.694-.688-4.098.033-.134.092-.26.172-.373.2-.253.469-.442.774-.545.251-.132.551-.132.802,0l.172.201v.573c0,.258-.143.487,0,.63-.009,1.053.368,2.073,1.06,2.866.49.851,1.191,1.561,2.035,2.063.287,0,.487.172.573,0,.072-.154.072-.333,0-.487-.172-.516-.258-.86-.344-1.032-.125-.342-.32-.655-.573-.917-.322-.397-.71-.736-1.146-1.003-.31-.112-.608-.256-.888-.43-.344-.315-.344-.774,0-1.347.272-.389.636-.704,1.06-.917.545-.258,1.376,0,2.579.516s1.748.545,1.949.229c.399-.578.399-1.342,0-1.92-.476-.795-1.146-1.456-1.949-1.92-.99-.651-2.176-.935-3.353-.802-1.339.215-2.515,1.013-3.21,2.178-1.062,1.725-1.242,3.852-.487,5.732.487,1.914,1.741,3.541,3.468,4.499.974.552,2.12.716,3.21.459,1.249-.371,2.325-1.174,3.038-2.264.454-.69.703-1.495.716-2.321.089-.221.089-.467,0-.688-.102-.238-.102-.507,0-.745.229-.304.551-.526.917-.63.349-.14.74-.14,1.089,0,.946.315,1.032,1.118.315,2.379Z"/>
    <path class="cls-12" d="M108.805,208.96c1.383.752,2.809,1.422,4.27,2.006.2.026.402.026.602,0,.19-.034.384-.034.573,0,.258,0,.373.373.315.774.016.095.016.192,0,.287-.279.368-.643.663-1.06.86-.389.305-.902.401-1.376.258-.208-.106-.393-.252-.545-.43l-.602-.63c-1.06-.487-2.121-.974-3.152-1.519l-.86,2.293,2.551,1.175,1.691.745.774.201.745.172c.227.081.406.26.487.487.107.197.107.434,0,.63-.206.267-.471.483-.774.63-.262.163-.555.27-.86.315h-.459l-.315-.287-2.637-1.146c-1.204-.516-1.977-.888-2.293-1.06h-1.032c-.308.02-.613-.072-.86-.258-.108-.085-.18-.208-.201-.344v-.459c-2.084-.91-4.048-2.075-5.846-3.468-.207-.046-.402-.134-.573-.258-.27-.258-.38-.641-.287-1.003.041-.226.129-.441.258-.63.545-.774,1.089-1.032,1.662-.831l.287.172c.216.237.39.508.516.802.109.334.307.631.573.86,1.275,1.03,2.647,1.932,4.098,2.694.459-1.089.745-1.834.86-2.207-1.77-.9-3.409-2.038-4.872-3.382-.277-.105-.538-.25-.774-.43-.356-.315-.519-.794-.43-1.261.013-.144.063-.282.143-.401.244-.339.583-.598.974-.745.401-.178.868-.111,1.204.172.219.184.37.437.43.716.067.285.216.544.43.745,1.317,1.077,2.727,2.036,4.213,2.866.323-.049.651-.049.974,0,.301-.074.616-.074.917,0,.178.093.281.287.258.487.029,0,.029.201,0,.401Z"/>
    <path class="cls-12" d="M118.922,205.521c.138.26.138.571,0,.831-.144.173-.319.319-.516.43-.19.133-.33.324-.401.544l-.401,1.318c-.075.297-.18.585-.315.86-.086.125-.205.224-.344.287-.626.182-1.3.099-1.863-.229-.247-.082-.453-.257-.573-.487-.043-.101-.043-.215,0-.315l.315-.315c.137-.093.246-.222.315-.373.373-1.175.516-1.777.401-1.834-3.746-1.369-7.338-3.127-10.718-5.245-.175.398-.272.826-.287,1.261.022.365-.047.729-.201,1.06-.172.287-.573.344-1.204.201-.172-.053-.336-.13-.487-.229-.33-.354-.44-.86-.287-1.318.115-1.032.287-2.207.516-3.525.179-.336.537-.538.917-.516.474-.054.953.036,1.376.258h.258c.165.156.284.354.344.573.046.21.156.4.315.545,3.578,2.274,7.369,4.194,11.32,5.732.161.028.326.028.487,0,.19-.034.384-.034.573,0,.219.085.387.264.459.487Z"/>
    <path class="cls-12" d="M109.407,196.006c.517.717,1.146,1.346,1.863,1.863.661.545,1.361,1.043,2.092,1.49,1.888,1.074,3.941,1.83,6.076,2.235.304.044.613.044.917,0,.303-.058.614-.058.917,0,.279.116.483.363.545.659.035.265-.037.533-.201.745-.343.406-.844.646-1.376.659-.494-.065-.977-.2-1.433-.401-2.342-.605-4.596-1.511-6.706-2.694-.87-.522-1.695-1.116-2.465-1.777-.992-.844-1.878-1.807-2.637-2.866l-.459-.057c-.109-.19-.195-.392-.258-.602-.017-.193.034-.385.143-.545.237-.297.573-.5.946-.573.419-.071.848.044,1.175.315l.229.201c.104.192.191.394.258.602.069.272.196.527.373.745Z"/>
    <path class="cls-12" d="M122.074,195.261c2.436,2.35,3.439,3.84,2.866,4.528s-2.006,1.06-3.869.716c-1.729-.351-3.399-.95-4.958-1.777-1.897-.982-3.604-2.292-5.044-3.869-1.519-1.72-2.035-3.124-1.605-3.926l.229-.315c.487-.659,1.29-.802,2.407-.487,1.23.418,2.427.926,3.582,1.519.416.136.818.309,1.204.516.373.188.589.588.545,1.003.035.092.035.194,0,.287-.257.247-.572.425-.917.516-.392.178-.841.178-1.232,0-.204-.188-.395-.389-.573-.602-.509-.309-1.046-.569-1.605-.774-.535-.229-.879-.287-1.032-.172-.258.172.229.831,1.49,1.92,1.14.972,2.368,1.835,3.668,2.579,1.013.59,2.066,1.108,3.152,1.548,1.175.459,1.92.602,2.178.401s0-.401-.459-.917c-.483-.548-1.011-1.056-1.576-1.519l-.373-.172c-.745-.401-.888-.888-.459-1.404l.344-.315c.413-.288.962-.288,1.376,0,.294.158.526.411.659.716Z"/>
    <path class="cls-12" d="M116.199,187.265c.563.687,1.208,1.303,1.92,1.834.68.556,1.398,1.063,2.149,1.519,1.916,1.172,3.953,2.133,6.076,2.866.298.113.604.199.917.258.319.06.628.166.917.315.267.14.471.375.573.659.041.213-.035.432-.201.573-.361.315-.854.433-1.318.315-.501-.126-.983-.318-1.433-.573-2.338-.907-4.6-1.999-6.763-3.267-.867-.561-1.7-1.173-2.493-1.834-1.046-.785-2.007-1.679-2.866-2.665l-.573-.602c-.125-.16-.213-.346-.258-.545-.077-.133-.077-.297,0-.43.24-.247.573-.382.917-.373.415-.018.822.114,1.146.373l.229.201c.12.167.217.351.287.545.17.348.439.637.774.831Z"/>
    <path class="cls-12" d="M123.479,186.319c.041.071.041.158,0,.229h-.287c-.114.037-.208.12-.258.229l-.43,1.175c-.023.133-.023.268,0,.401.025.113.025.231,0,.344-.255.115-.547.115-.802,0-.368-.041-.722-.169-1.032-.373-.225-.109-.406-.291-.516-.516,0,0,0-.172.201-.315.14-.132.256-.287.344-.459l.43-1.347c.054-.213.141-.416.258-.602.093-.033.194-.033.287,0,.535.012,1.049.204,1.462.545.178.192.297.431.344.688ZM126.344,188.297c.058.065.058.164,0,.229h-.258c-.172,0-.258,0-.258.201s-.315.774-.459,1.175c-.021.133-.021.268,0,.401.021.104.021.211,0,.315-.267.104-.564.104-.831,0-.37-.072-.727-.197-1.06-.373-.219-.117-.398-.297-.516-.516l.201-.315c.134-.131.241-.287.315-.459l.43-1.29c.052-.205.139-.399.258-.573.101-.043.215-.043.315,0,.538.038,1.055.226,1.49.545.155.192.263.418.315.659h.057Z"/>
    <path class="cls-12" d="M128.723,183.368c1.741,1.189,3.372,2.531,4.872,4.012,1.576,1.548,2.35,2.551,2.235,2.866-.011.143-.117.261-.258.287h-.516c-1.433.344-5.073-1.261-10.26-4.413-1.423-.889-2.74-1.937-3.926-3.124-.809-.691-1.454-1.552-1.891-2.522-.046-.08-.046-.178,0-.258h.344c.104.025.212.025.315,0l.258-.344c.067-.144.165-.271.287-.373.084-.025.174-.025.258,0,1.519-.344,4.184,1.089,8.282,3.869ZM127.634,184.055c-1.576-1.032-2.866-1.777-3.64-2.264-1.404-.802-2.235-1.089-2.522-.86-.051.099-.051.216,0,.315,0,.143.459.688,1.462,1.605.953.904,1.979,1.728,3.066,2.465,1.404.921,2.858,1.763,4.356,2.522,1.662.888,2.608,1.318,2.866,1.204s-.287-.716-1.404-1.777c-1.078-1.046-2.237-2.004-3.468-2.866l-.716-.344Z"/>
    <path class="cls-12" d="M131.245,182.852c.63.459,1.49,1.175,2.665,2.178s2.436,2.207,3.124,2.866l.716.659c.137.134.253.289.344.459v.229c-.313.037-.63-.012-.917-.143-.466-.181-.9-.432-1.29-.745l-.258-.229c-.149-.141-.275-.306-.373-.487-.185-.26-.397-.5-.63-.716-.689-.69-1.416-1.341-2.178-1.949-.974-.802-1.72-1.404-2.264-1.777-1.827-1.392-3.741-2.665-5.732-3.812-.266-.156-.544-.29-.831-.401l-.946-.315c-.247-.162-.43-.405-.516-.688-.101-.126-.101-.304,0-.43.372-.176.803-.176,1.175,0,.448.247.879.525,1.29.831,2.149,1.318,4.299,2.751,6.62,4.471Z"/>
    <path class="cls-12" d="M134.885,181.075c1.793,1.422,3.461,2.994,4.987,4.7,1.605,1.777,2.407,2.866,2.35,3.124s0,0-.229,0h-.487c-3.622-1.917-7.049-4.182-10.231-6.763-1.426-1.083-2.794-2.24-4.098-3.468-.773-.639-1.432-1.404-1.949-2.264v-.172h.63l.229-.201.229-.172c.085-.054.187-.075.287-.057,3.05,1.256,5.854,3.041,8.282,5.273ZM133.882,181.247c-1.605-1.232-2.866-2.063-3.64-2.637-1.404-.946-2.235-1.347-2.522-1.261s0,0,0,.201c.441.568.951,1.078,1.519,1.519,1.089,1.003,2.149,1.891,3.124,2.637s2.866,2.063,4.413,3.238c.882.735,1.843,1.369,2.866,1.891.172,0-.344-.659-1.49-1.863-1.105-1.181-2.293-2.283-3.554-3.296l-.716-.43Z"/>
    <path class="cls-12" d="M137.263,181.534c.63.545,1.519,1.376,2.694,2.579,1.139,1.111,2.21,2.288,3.21,3.525l.716.802c.143.168.268.35.373.545,0,0,0,.172,0,0-.313-.111-.604-.276-.86-.487-.469-.325-.902-.699-1.29-1.118-.109-.081-.206-.177-.287-.287l-.401-.516c-.176-.301-.398-.572-.659-.802-.674-.83-1.412-1.606-2.207-2.321-1.003-.974-1.748-1.634-2.293-2.092-1.813-1.585-3.728-3.05-5.732-4.385-.261-.196-.539-.369-.831-.516-.279-.153-.548-.325-.802-.516-.229-.152-.417-.359-.545-.602v-.229c.401-.019.797.102,1.118.344.459.265.9.562,1.318.888,2.256,1.604,4.418,3.336,6.477,5.187Z"/>
    <path class="cls-12" d="M147.58,188.383c.395.486.749,1.004,1.06,1.548.229.401.258.573,0,.459-.928-.696-1.766-1.504-2.493-2.407l-.831-.946-.831-.917c-.946-.86-1.805-1.662-2.637-2.379-2.035-1.72-3.64-2.866-4.872-3.84,2.691,2.294,5.237,4.754,7.623,7.365l.63.63.774.86c.205.247.396.506.573.774.229.344.258.487,0,.43-.359-.177-.688-.409-.974-.688-.459-.401-.917-.831-1.347-1.29-.17-.227-.323-.467-.459-.716-.108-.174-.233-.337-.373-.487-3.618-3.765-7.549-7.216-11.75-10.317l-.287-.201-.287-.201c-.139-.091-.248-.221-.315-.373,0,0,0-.143.143-.143.483-.042.968.047,1.404.258l.487.344.258.201.258.201h0c3.285,2.218,6.443,4.62,9.457,7.193-2.825-2.88-5.873-5.535-9.113-7.938l-.401-.287-.344-.229c-.18-.123-.336-.278-.459-.459v-.172c.332.063.651.179.946.344.452.19.876.441,1.261.745.162.112.307.247.43.401.072.124.17.232.287.315,3.859,2.974,7.386,6.356,10.518,10.088.172.229.459.516.802.888s.659.688.86.946Z"/>
    <path class="cls-4" d="M224.041,129.662c-6.821-.172-11.865,2.866-16.737,5.875-17.195,10.604-25.621,15.934-26.624,16.708-11.036,8.365-20.597,18.517-28.286,30.034-5.058,7.982-9.219,16.497-12.409,25.391-3.385,8.878-4.859,18.37-4.327,27.856,0,1.118.401,3.267,1.863,4.041,2.379,1.261,6.076-2.149,10.833-5.273,4.757-3.124,4.815-2.321,14.874-7.107,17.539-8.397,21.608-12.667,42.701-23.213,8.023-3.752,15.696-8.212,22.927-13.326,7.251-5.245,10.059-8.397,11.75-12.38,1.175-2.694,1.548-5.159.63-17.969-1.605-22.268-3.496-25.277-5.732-27.226-3.318-2.417-7.364-3.621-11.463-3.41Z"/>
    <path class="cls-10" d="M139.843,207.67c3.197-2.501,7.268-3.606,11.291-3.066,2.505.305,4.816,1.507,6.505,3.382,1.908,2.832,2.562,6.327,1.805,9.658-.645,5.21-2.865,10.099-6.362,14.014"/>
    <path class="cls-4" d="M129.468,84.811c-1.654-.111-3.085,1.14-3.195,2.794-.111,1.654,1.14,3.085,2.794,3.195,1.87-.227,3.201-1.928,2.974-3.797-.022-.179-.058-.357-.108-.53-.447-.97-1.397-1.611-2.465-1.662Z"/>
    <path class="cls-4" d="M141.877,85.327c-1.654-.111-3.085,1.14-3.195,2.794-.111,1.654,1.14,3.085,2.794,3.195,1.842-.186,3.185-1.831,2.999-3.673-.022-.222-.067-.441-.133-.654-.447-.97-1.397-1.611-2.465-1.662Z"/>
    <path class="cls-4" d="M154.974,87.82c-1.646-.119-3.077,1.119-3.195,2.766-.119,1.646,1.119,3.077,2.766,3.195,1.856-.207,3.193-1.879,2.986-3.736-.022-.2-.063-.399-.12-.592-.451-.95-1.386-1.577-2.436-1.634Z"/>
    <path class="cls-4" d="M135.544,94.985c-1.458-.739-3.239-.179-4.012,1.261-.787,1.373-.311,3.125,1.062,3.911.009.005.018.01.027.015,1.744.624,3.663-.284,4.287-2.027.071-.198.123-.402.155-.609.008-1.067-.577-2.049-1.519-2.551Z"/>
    <path class="cls-4" d="M148.068,95.759c-1.466-.742-3.257-.183-4.041,1.261-.787,1.373-.311,3.125,1.062,3.911.009.005.018.01.027.015,1.766.607,3.69-.332,4.298-2.098.048-.139.086-.28.116-.424.063-1.095-.505-2.13-1.462-2.665Z"/>
    <path class="cls-14" d="M213.925,148.548c-3.891,2.554-7.984,4.788-12.237,6.677-4.427,1.859-8.171,5.042-10.718,9.113-2.067,2.997-1.313,7.102,1.683,9.168,1.549,1.069,3.481,1.424,5.309.977,1.48-.152,2.919-.58,4.241-1.261.999-.543,2.132-.791,3.267-.716,3.198.034,6.388.311,9.543.831,1.258.386,2.617-.134,3.296-1.261.399-.661.634-1.408.688-2.178,0-.315,0-2.006-.172-2.092s0-.201-.373.516h.172l.946-.287c1.08-.288,2.068-.851,2.866-1.634.486-.513.849-1.131,1.06-1.805,0-.315.172-.946.287-1.118l-1.003,1.032c-1.519-.229-1.891-.172-1.146.201l.659.401c.537.312,1.116.544,1.72.688,1.46.351,2.997-.096,4.041-1.175,1.519-2.099,1.824-4.841.802-7.222-1.357-5.101-5.409-9.044-10.546-10.26-2.966-.794-6.014.968-6.808,3.934-.004.016-.009.033-.013.05-.46,2.461-.077,5.006,1.089,7.222.988,2.403,3.578,3.728,6.104,3.124,2.831-1.187,4.52-4.12,4.127-7.165.214-1.583-.896-3.039-2.479-3.253-1.583-.214-3.039.896-3.253,2.479h0c-1.147,3.825.963,7.868,4.757,9.113,1.254.346,2.583-.195,3.238-1.318,1.45-2.164,1.002-5.078-1.032-6.706-.962-.691-2.07-1.152-3.238-1.347-.716,0-2.264,0-2.866-.545-1.118-1.111-2.923-1.111-4.041,0-3.523,4.03-3.843,9.943-.774,14.329.792,1.371,2.544,1.84,3.915,1.048.213-.123.41-.273.584-.446,1.777-1.634,2.725-3.981,2.579-6.391-.076-2.586-2.171-4.655-4.757-4.7-4.901,0-8.598,7.251-4.385,10.604,1.232.994,3.036.801,4.03-.43.694-.86.832-2.041.355-3.037l-3.296-7.451c-.796-1.368-2.55-1.832-3.918-1.036-.003.002-.005.003-.008.005-4.643,3.554-3.468,8.913-1.175,13.527l4.499-3.496c-1.316-1.426-2.713-2.775-4.184-4.041-1.343-1.339-2.997-2.324-4.815-2.866-1.923-.333-3.854.541-4.872,2.207-1.028,1.926-1.184,4.199-.43,6.248l2.006-3.525c-.879.258-1.814.258-2.694,0l-.745,5.732c5.573-.519,11.169-.739,16.765-.659,3.668.143,3.668-5.588,0-5.732-5.609-.206-11.224-.11-16.823.287-1.583-.214-3.039.896-3.253,2.479-.214,1.583.896,3.039,2.479,3.253,1.874.531,3.858.531,5.732,0,1.527-.418,2.425-1.994,2.007-3.521,0-.001,0-.003-.001-.004-.068-.483-.164-.961-.287-1.433,0-.229,0-.287,0-.201l-1.232.201c.65.573,1.339,1.1,2.063,1.576,1.462,1.266,2.849,2.615,4.155,4.041,2.321,2.493,5.904-.688,4.499-3.468-.545-1.118-2.407-4.499-.86-5.732l-3.898-1.032,3.267,7.451,4.499-3.468c-.516-.401,0,0-.229,0,.118-.2.263-.383.43-.545.516-.487,1.089-.201-.172-.716s-.602-.401-.774.373c-.142.525-.455.989-.888,1.318l4.499.573c-1.687-2.187-1.687-5.236,0-7.423h-4.041c1.168,1.022,2.615,1.671,4.155,1.863.639.161,1.291.266,1.949.315.974,0,0,0,.344-.545l3.238-1.318c-.749-.373-1.076-1.266-.745-2.035l-5.732-.774c-.027.496-.027.994,0,1.49,0,.487-.315,0,.201.229s.487.258.401-.172c-.07-.295-.165-.582-.287-.86-.171-.722-.229-1.467-.172-2.207v-.201c-.42.134-.42.191,0,.172h.459c1.67.456,3.136,1.466,4.155,2.866.508.682.932,1.423,1.261,2.207.178.854.408,1.696.688,2.522.258.401-.745.63.774,0,.974-.459.802-.344,0-.774-.796-.514-1.718-.801-2.665-.831-1.214.031-2.337.651-3.009,1.662-.295.404-.509.861-.63,1.347v.774c0,.258.172,0,.229-.229s.258-.258,0,0h0s-.802.258-1.175.373c-.89.277-1.717.725-2.436,1.318-.703.652-1.192,1.501-1.404,2.436-.086.541-.086,1.092,0,1.634l.172,1.232c0,.201,0,.172,0-.172l3.238-1.318c-2.705-.449-5.431-.755-8.168-.917-2.597-.393-5.251-.157-7.738.688-.819.487-1.695.872-2.608,1.146-.573,0-1.977.287-2.436-.229.172.201,0-.63.201-.917.27-.754.689-1.446,1.232-2.035,5.159-5.904,13.613-7.509,19.803-12.094,1.368-.796,1.832-2.55,1.036-3.918-.002-.003-.003-.005-.005-.008-.796-1.368-2.55-1.832-3.918-1.036-.003.002-.005.003-.008.005l-.229.229Z"/>
    <path class="cls-14" d="M147.236,209.848c-4.471-.774-5.474,4.327-6.305,7.594-.789,3.262-1.259,6.592-1.404,9.944.007,1.583,1.295,2.861,2.878,2.854.746-.003,1.461-.297,1.994-.819,1.211-1.164,2.236-2.507,3.038-3.984,1-1.595,1.572-3.421,1.662-5.302-.019-.539-.126-1.071-.315-1.576-.315-.745-.401-.917-.201-.516,0-.344,0-.373,0,0s.315-.802,0,0c.145-.342.308-.677.487-1.003l.602-.946c.201-.258.229-.287,0,0l.344-.43c.459-.516,1.003-.917,1.49-1.404,1.466-1.619,1.343-4.12-.276-5.586-.205-.186-.43-.35-.67-.489-1.868-1.056-4.211-.74-5.732.774-1.535,1.349-1.96,3.567-1.032,5.388,1.548,2.436,4.327,1.232,6.477.602,1.527-.419,2.426-1.998,2.006-3.525-.419-1.527-1.998-2.426-3.525-2.006h0l-1.462.43-.63.344h-.344c-.229,0-.201,0,0,0l1.462.373h-.172l1.032,1.032c.344.43,0,1.06.143,1.49s0,.172,0,0,0,0,0,0v-.172l-.201.172s-.716,0-.459,0-.401,0-.516,0l-.602-.573c.774-2.006.86-2.866.201-2.149-.326.254-.633.532-.917.831-1.485,1.501-2.62,3.311-3.324,5.302-.402,1.141-.402,2.384,0,3.525,0,0,.344,1.06.229.516,0,.63,0,0,0,0l-.172.487c-.063.233-.14.463-.229.688-.201.487.287-.573,0,.229l-.258.516c-.211.426-.45.838-.716,1.232l-.401.602c-.315.401.401-.487-.172.201s-.63.716-.974,1.06l4.901,2.006c.053-2.335.341-4.658.86-6.935.229-1.175.516-2.321.86-3.468.201-.63.373-1.232.602-1.863v-.287c.172-.401,0-.43,0,0v-.201c-.476.638-1.305.903-2.063.659,1.526.42,3.104-.476,3.524-2.002,0-.001,0-.003.001-.004.42-1.526-.476-3.104-2.002-3.524-.001,0-.003,0-.004-.001l.287-.086Z"/>
    <path class="cls-14" d="M51.173,135.68c-3.955,11.922,1.462,23.901,6.362,34.677,4.213,9.285,7.824,20.777,18.026,25.076,2.493,1.032,4.241-2.235,3.21-4.213-8.769-16.994-24.388-33.272-22.927-53.677.258-3.668-5.474-3.668-5.732,0-1.462,21.637,14.53,38.574,23.815,56.572l3.152-3.984c-3.651-1.905-6.542-4.998-8.196-8.769-2.407-4.413-4.327-9.113-6.419-13.67-4.241-9.343-9.199-19.889-5.732-30.263,1.146-3.525-4.385-5.015-5.531-1.519l-.029-.229Z"/>
    <path class="cls-14" d="M125.542,139.749q0-.258,0,0c0,.195-.06.385-.172.545.229-.43-.344.258,0,0s0,0,0,0c0,0,.459-.516,0,0,.172-.172.917-.229,1.146-.287l1.29-.287,1.146-.373h.602c.659-.201-.401,0,0,0h.172q.258,0,0,0t0,0h.172c.573,0-.516-.258,0,0l-.43-.315c.229.229.172.172,0-.172l2.493-4.299c-1.393-.1-2.791-.1-4.184,0-1.531.09-3.049.339-4.528.745-1.178.324-2.114,1.218-2.493,2.379-.446,1.41.12,2.944,1.376,3.726,1.522.628,3.182.846,4.815.63,2.938.163,5.885.038,8.798-.373,1.171-.073,2.236-.701,2.866-1.691.702-1.281.468-2.873-.573-3.898-1.347-1.082-3.03-1.659-4.757-1.634-3.203-.336-6.441-.064-9.543.802-1.527.415-2.429,1.99-2.014,3.517.267.981,1.033,1.747,2.014,2.014,3.533.652,7.127.921,10.718.802,1.583,0,2.866-1.283,2.866-2.866s-1.283-2.866-2.866-2.866h-4.872l-2.407-.172h-.774l-1.261-.258v5.531c.917-.258,1.834-.43,2.866-.602h4.987s.888,0,.229,0c.239-.016.478-.016.716,0h.659-.373c-.406-.264-.709-.658-.86-1.118v-1.519l.201-.43,1.72-1.318c-.48.173-.981.279-1.49.315.63,0,0,0-.229,0h-8.97c-.86,0,.172,0,.43.201l1.003,1.032h0l.373,1.462c-1.92,1.72-2.379,2.407-1.404,2.092h.487l1.003-.201h1.49c1.345-.115,2.696-.115,4.041,0,1.583-.01,2.858-1.3,2.849-2.883-.003-.497-.135-.985-.384-1.416-.938-1.485-2.544-2.417-4.299-2.493-1.362.005-2.712.258-3.984.745-1.332.228-2.625.643-3.84,1.232-1.532.878-2.482,2.504-2.493,4.27,0,1.583,1.283,2.866,2.866,2.866s2.866-1.283,2.866-2.866l-.057-.573Z"/>
    <path class="cls-14" d="M182.056,74.953c3.455-.76,7.034-.76,10.489,0,3.764.306,7.507.842,11.205,1.605,6.799,1.227,13.166,4.188,18.485,8.598l.573-4.499q.573,0,0-.172l-1.261-.287-2.465-.602-4.557-1.232-9.543-2.264-9.142-2.149c-2.681-.816-5.558-.705-8.168.315-2.321.974-1.548,4.7.688,5.244l13.899,3.296c4.175.58,8.23,1.828,12.008,3.697l2.235-5.273c-11.359-4.437-23.101-7.824-35.078-10.116-2.866-.573-5.245,3.611-2.207,5.244,6.673,3.245,14.053,4.763,21.465,4.413,7.304-.261,14.545,1.431,20.978,4.901,1.402.734,3.134.191,3.868-1.211.69-1.32.255-2.948-1.002-3.747-6.257-3.563-13.294-5.531-20.491-5.732-3.949.076-7.899-.048-11.836-.373-3.545-.473-6.973-1.59-10.116-3.296l-2.178,5.33c11.969,2.289,23.702,5.675,35.049,10.116,3.152,1.232,4.843-3.554,2.207-5.216-3.919-2.045-8.152-3.42-12.524-4.07l-14.759-3.525.688,5.244c1.249-.287,2.556-.198,3.754.258l4.585,1.089,9.543,2.235,9.113,2.149c2.465.573,5.732,2.063,8.139.459,1.365-.802,1.821-2.558,1.02-3.923-.124-.211-.274-.404-.446-.577-6.029-5.074-13.264-8.509-21.007-9.973-4.213-.847-8.471-1.45-12.753-1.805-3.977-.786-8.078-.679-12.008.315-3.439,1.261-1.949,6.792,1.519,5.531h.029Z"/>
    <path class="cls-14" d="M178.417,173.652c-3.195.886-6.038,2.738-8.139,5.302-.593.705-1.12,1.463-1.576,2.264-.395.701-.612,1.488-.63,2.293-.024,1.133.512,2.205,1.433,2.866,2.01,1.174,4.496,1.174,6.505,0,1.792-.857,3.245-2.29,4.127-4.069.389-.667.492-1.463.287-2.207-.197-.724-.671-1.341-1.318-1.72-1.293-.74-2.937-.366-3.783.86-.174.397-.396.773-.659,1.118l.43-.573c-.348.433-.742.827-1.175,1.175l.573-.459c-.447.342-.939.622-1.462.831l.688-.287c-.479.199-.979.344-1.49.43h.774c-.342.057-.69.057-1.032,0l.487.057h-.401l.688.287h-.172l.573.43-.143-.143.459.573c-.015-.066-.015-.135,0-.201l.287.688h0v.745-.258.774c-.013-.133-.013-.268,0-.401l-.315.688c.331-.648.724-1.263,1.175-1.834l-.43.573c.689-.89,1.489-1.689,2.379-2.379l-.573.459c.875-.712,1.839-1.309,2.866-1.777l-.688.287,1.548-.545c1.558-.281,2.592-1.772,2.311-3.33-.281-1.558-1.772-2.592-3.33-2.311-.17.031-.338.077-.5.138l.229-.344Z"/>
    <path class="cls-14" d="M255.164,160.498c.219,1.904.219,3.827,0,5.732v-.745c-.172,1.118-.401,2.264-.688,3.382-.419,1.527.479,3.106,2.006,3.525,1.527.419,3.106-.479,3.525-2.006.866-3.2,1.167-6.527.888-9.83-.011-.759-.307-1.486-.831-2.035-.541-.536-1.273-.836-2.035-.831-1.583,0-2.866,1.283-2.866,2.866v-.057Z"/>
    <path class="cls-14" d="M274.021,167.204l.802-.716-.602.459c.202-.16.424-.295.659-.401l-.688.287h.43-.774.344-.774.258l-.688-.287c.118.028.227.088.315.172l-.573-.459c.138.109.263.234.373.373l-.344-.573c.373.487.688,1.032,1.032,1.576s.63,1.146.888,1.748l-.287-.688c.251.598.434,1.223.545,1.863v-.745.201c-.028.381.062.761.258,1.089.111.349.308.664.573.917.536.547,1.269.857,2.035.86.766-.003,1.499-.313,2.035-.86.529-.534.828-1.254.831-2.006-.063-.697-.188-1.388-.373-2.063-.206-.628-.455-1.241-.745-1.834-.422-.853-.901-1.676-1.433-2.465-.291-.544-.68-1.029-1.146-1.433-.77-.734-1.803-1.126-2.866-1.089-1.634.055-3.167.806-4.213,2.063-1.092,1.114-1.092,2.898,0,4.012.536.547,1.269.857,2.035.86.756-.011,1.477-.32,2.006-.86h.086Z"/>
    <path class="cls-13" d="M287.09,94.956c-1.146,4.012,0,8.024-.401,12.065-.194,1.453-.62,2.866-1.261,4.184-.404.768-.864,1.506-1.376,2.207,0,0-.487.516-.659.745s-.344.315-.143.172c.315-.028.631-.028.946,0l1.261.745c.258.688.373.86.287.516v-.545c0-.401,0-.802-.229-1.204l-.201-1.204v-.373c0-.774-.143-.545-.172.716l-1.032,1.032c-.659.172-.716.201-.172,0,.234-.019.465-.067.688-.143.332-.091.65-.226.946-.401.664-.417,1.247-.951,1.72-1.576.785-1.065,1.475-2.196,2.063-3.382,1.236-2.439,2.142-5.031,2.694-7.709.419-1.527-.479-3.106-2.006-3.525-1.527-.419-3.106.479-3.525,2.006-.616,3.06-1.802,5.976-3.496,8.598,0,.201-.315.43-.315.459s-.229,0,0,0,1.261-.201.201,0c-1.271.13-2.37.943-2.866,2.121-.404,1.909-.275,3.891.373,5.732.031,2.083,1.729,3.754,3.812,3.754,1.9-.463,3.526-1.686,4.499-3.382,1.974-2.638,3.21-5.754,3.582-9.027.459-3.668-.745-7.48.258-11.062.42-1.526-.476-3.104-2.002-3.524h-.004c-1.526-.421-3.104.475-3.524,2.001,0,.001,0,.003-.001.004h.057Z"/>
    <path class="cls-13" d="M133.079,54.147l-1.06,7.021c-.744,2.535-.744,5.231,0,7.766,1.109,2.224,3.81,3.128,6.034,2.019.346-.172.668-.389.958-.643,1.212-1.344,1.453-3.303.602-4.901-.172-.43-.43-.831-.63-1.232-.078-.118-.145-.243-.201-.373-.201-.287,0,.201,0,.201l-.287-.802-.172-.716c.014-.105.014-.211,0-.315,0-.688,0,.43,0,0v-1.634c0-1.175.143-2.321.287-3.496,0-1.583-1.283-2.866-2.866-2.866s-2.866,1.283-2.866,2.866c-.343,2.27-.343,4.579,0,6.849.231,1.149.647,2.252,1.232,3.267l.43.716q0,.258,0,0c-.057-.177-.057-.367,0-.545.079-.791.637-1.452,1.404-1.662-.287,0-.172,0,.373,0-.229,0-.201,0,0,0s.315,0,0,0c.459.201.545.258.287,0,.373.315.43.373.229.172.287.401.344.487.172.172.287.573,0,0,0,0,0,.43,0,.459,0,.143v-.401c0-.143,0-.888,0,0,0-.315,0-.63.143-.946l.258-1.777,1.118-7.365c.166-.746.064-1.527-.287-2.207-.399-.629-1.009-1.096-1.72-1.318-1.526-.42-3.104.476-3.524,2.002,0,.001,0,.003-.001.004h.086Z"/>
  </g>
</svg>