<?xml version="1.0" encoding="UTF-8"?>
<svg id="Layer_1" data-name="Layer 1" xmlns="http://www.w3.org/2000/svg" viewBox="0 0 323.27 323.27">
  <defs>
    <style>
      .cls-1 {
        fill: #f5c900;
      }

      .cls-1, .cls-2 {
        stroke: #1d1d1b;
        stroke-miterlimit: 10;
        stroke-width: 6px;
      }

      .cls-2 {
        fill: #1d1d1b;
      }
    </style>
  </defs>
  <rect class="cls-1" x="3" y="3" width="317.27" height="317.27"/>
  <path class="cls-2" d="m191.74,170.21l56.55,32.65c6.87,3.97,15.46-.99,15.46-8.92v-65.3c0-7.93-8.59-12.89-15.46-8.92l-56.55,32.65c-6.87,3.97-6.87,13.88,0,17.85Z"/>
  <path class="cls-2" d="m108.95,170.21l56.55,32.65c6.87,3.97,15.46-.99,15.46-8.92v-65.3c0-7.93-8.59-12.89-15.46-8.92l-56.55,32.65c-6.87,3.97-6.87,13.88,0,17.85Z"/>
  <rect class="cls-2" x="59.52" y="117.21" width="38.55" height="88.85" rx="7.32" ry="7.32"/>
</svg>