<?xml version="1.0" encoding="UTF-8"?>
<svg id="Layer_1" data-name="Layer 1" xmlns="http://www.w3.org/2000/svg" viewBox="0 0 323.269 323.269">
  <defs>
    <style>
      .cls-1 {
        fill: #b8c334;
        stroke: #231f20;
        stroke-miterlimit: 10;
        stroke-width: 6px;
      }

      .cls-2 {
        fill: #231f20;
        stroke-width: 0px;
      }
    </style>
  </defs>
  <rect class="cls-1" x="3" y="3" width="317.269" height="317.269"/>
  <g>
    <path class="cls-2" d="M161.68,54.353c-1.083.898-1.374,1.295-1.321,1.797.053.344.132,1.057.211,1.559.211,1.585-1.215,2.748-3.699,3.012-.846.106-1.876.37-2.246.581-1.11.687-6.157,6.764-5.866,7.055.185.185.528.159,1.004-.053,2.669-1.268,10.86-2.642,15.669-2.642,2.642-.026,7.689.528,9.248,1.004,1.189.37,1.85.37,1.85,0,0-.396-1.533-2.272-3.567-4.386l-1.612-1.665h-2.431c-2.775,0-3.884-.344-4.783-1.48-.819-1.031-.661-2.748.344-3.779l.713-.74-.819-.713c-.449-.37-.951-.687-1.057-.687-.132,0-.872.528-1.638,1.136Z"/>
    <path class="cls-2" d="M161.073,71.687c-3.197.317-9.301,1.797-11.891,2.907-3.594,1.533-4.571,1.876-5.417,1.876-.898,0-2.114.819-2.114,1.427,0,.106-.291.581-.634,1.031-.344.476-.951,1.427-1.348,2.167-.37.713-.951,1.744-1.242,2.246-1.083,1.85-2.854,5.311-2.854,5.575,0,.344,1.215-.396,2.405-1.48.978-.846,4.888-3.356,7.108-4.518,3.012-1.612,7.293-3.277,11.362-4.413,4.254-1.189,5.338-1.348,10.437-1.348,4.756.026,5.073.053,6.025.608,1.215.74,1.506,1.268,1.506,2.642,0,.74-.185,1.268-.634,1.797l-.634.74h-5.39c-3.409,0-5.787.132-6.553.317-.661.185-1.718.449-2.378.608-2.008.502-4.201,1.189-5.681,1.823-4.122,1.744-5.549,2.431-7.584,3.646-4.043,2.378-7.399,5.205-9.803,8.271-2.299,2.907-3.118,3.699-4.228,4.016-1.321.396-1.797,1.427-1.929,4.043-.079,1.718-.396,2.959-1.057,4.228-.423.793-1.057,4.043-1.533,7.795-.423,3.356-.608,15.141-.264,16.911.211.978.634.581.634-.608,0-.978.687-2.537,1.374-3.197.74-.687,2.537-.687,3.462,0,1.321.978,1.4,2.537.396,7.769-.423,2.22-.581,12.234-.238,14.427.185,1.004.423,2.51.555,3.329.106.819.344,1.903.476,2.378.159.476.476,1.585.74,2.457.502,1.718,3.594,7.901,5.126,10.305.291.423.634,1.031.793,1.321.898,1.665,3.752,5.945,6.051,8.984,4.149,5.575,7.742,9.671,13.555,15.59l3.646,3.699,3.435-3.514c3.911-4.016,7.372-7.848,8.059-8.878l.476-.713-3.144-3.224c-3.224-3.303-5.153-5.443-6.315-7.055-.344-.502-.74-1.057-.846-1.189-2.722-3.514-6.632-10.834-8.35-15.59-2.51-7.002-3.197-10.887-3.224-18.1,0-5.84.106-6.632,1.374-10.702,1.215-3.99,3.62-7.082,5.76-7.399,2.325-.37,3.646.317,4.968,2.457,1.559,2.537,2.087,6.342,2.193,15.114.053,5.655.132,6.764.634,8.72.317,1.242.687,2.352.819,2.484.132.159.238.476.238.713,0,.687,2.88,6.21,4.598,8.773,2.854,4.307,9.75,12.34,10.596,12.34.344,0,1.823-2.167,2.272-3.356.264-.713.238-.766-2.801-4.175-.925-1.031-2.193-2.51-2.801-3.303-.634-.793-1.295-1.612-1.48-1.797-.423-.423-3.012-4.413-3.673-5.602-.264-.502-.634-1.11-.793-1.321-.766-1.083-2.378-5.575-3.118-8.72-.978-4.201-.819-5.628.766-6.606,1.031-.634,1.797-.661,2.775-.106.978.608,1.48,1.559,1.665,3.224.106.766.291,1.797.423,2.246.132.476.528,1.744.846,2.827,1.083,3.594,3.092,7.134,6.712,11.759,3.462,4.439,5.417,6.157,5.417,4.783,0-.185.37-1.004.793-1.823.449-.819.793-1.744.793-2.061,0-.476-1.453-2.59-2.14-3.144-.079-.079-1.031-1.427-2.087-2.986-1.982-2.986-4.624-7.954-5.39-10.147-.766-2.22-1.427-4.386-1.823-5.893-.713-2.669-2.035-9.592-2.035-10.596,0-.344-.185-1.718-.396-3.012-.238-1.321-.608-3.514-.819-4.888-.766-4.598-1.612-7.108-3.118-9.222-3.224-4.598-8.297-6.342-13.767-4.756-2.959.872-3.065.872-3.964.396-1.638-.898-2.167-2.748-1.163-4.149,1.559-2.193,8.958-3.356,13.45-2.114,5.575,1.559,9.83,5.311,12.155,10.807,1.215,2.827,1.665,4.809,2.748,11.944.211,1.374.528,3.329.687,4.36.159,1.004.396,2.669.528,3.646.132,1.004.37,2.246.502,2.775s.449,1.797.687,2.827c.581,2.378,1.48,5.205,1.77,5.523.106.159.211.423.211.608,0,.37,1.718,4.016,2.695,5.76,1.004,1.744,3.039,4.756,3.594,5.232.502.449.528.423,1.11-1.453.317-1.057.74-2.352.925-2.854.846-2.352.793-2.801-.555-4.809-1.136-1.744-3.805-6.791-3.805-7.214,0-.106-.159-.555-.37-1.004-.449-1.004-1.823-5.232-2.378-7.319-.211-.793-.581-2.22-.846-3.144-.978-3.488-.581-5.179,1.427-6.025.766-.317.951-.291,1.903.185,1.189.608,1.585,1.189,2.008,3.039.687,2.854,1.11,4.545,1.533,5.945.238.793.555,1.797.687,2.246.106.423.476,1.453.793,2.246s.661,1.77.793,2.14c.291.951,1.083,2.114,1.321,1.955.185-.106.291-1.321.687-7.821.159-2.22.106-2.748-.476-4.492-.898-2.669-1.823-7.002-2.325-10.807-.159-1.083-.396-2.325-.528-2.748-.159-.423-.264-1.083-.264-1.48s-.185-1.374-.423-2.14c-.211-.793-.581-2.087-.819-2.88-.423-1.453-1.163-3.779-1.823-5.602-1.4-3.858-4.651-8.191-8.165-10.887-2.405-1.85-2.51-1.903-4.968-3.197-2.246-1.163-2.801-1.797-2.801-3.171,0-2.405,2.325-3.462,4.915-2.22,1.77.846,5.205,2.933,5.311,3.197.106.238.846.291.846.053,0-.106-.344-.74-.74-1.4-.423-.661-.819-1.4-.925-1.612s-.396-.713-.661-1.11c-.238-.37-.793-1.242-1.215-1.929-.846-1.427-1.506-2.246-1.797-2.246-.079,0-.951-.37-1.876-.793-.951-.449-1.903-.793-2.14-.793-.211,0-.449-.106-.555-.238-.079-.132-.528-.317-1.004-.423-.449-.106-1.321-.317-1.903-.528-3.409-1.11-9.856-1.665-14.533-1.215ZM170.849,88.889c4.201.819,6.764,1.903,9.803,4.149,3.118,2.299,5.417,5.126,7.082,8.667.555,1.163,1.11,2.325,1.242,2.563.132.264.238.608.238.766s.159.661.344,1.11c.211.476.581,1.559.846,2.431.238.872.608,2.061.819,2.642.661,1.876.502,2.88-.608,3.964s-2.087,1.189-3.382.396c-.872-.528-1.242-1.321-2.352-5.153-.264-.872-.634-1.982-.846-2.457s-.37-1.004-.37-1.136c0-.159-.555-1.453-1.242-2.854-1.004-2.008-1.691-2.959-3.25-4.571-1.11-1.11-2.299-2.167-2.669-2.325-.344-.132-.978-.476-1.427-.74-1.797-1.057-6.104-2.14-8.641-2.167-1.321,0-4.545.502-6.077.951-.687.211-1.374.37-1.533.37-.528,0-5.787,2.616-7.187,3.567-1.163.819-1.955,1.427-4.677,3.699-1.4,1.189-5.179,5.998-6.791,8.641-.925,1.559-1.691,2.959-1.691,3.092s-.159.581-.37,1.004c-.713,1.348-1.215,2.669-1.215,3.065,0,.238-.106.476-.238.581-.132.079-.317.528-.423,1.004-.713,3.462-1.453,5.179-2.537,5.787-1.189.687-1.876.581-3.039-.423-.951-.819-1.031-1.004-1.004-2.22.026-2.035,1.718-7.24,3.779-11.679,3.144-6.764,10.226-14.639,16.541-18.391,6.897-4.096,14.295-5.628,20.875-4.334ZM151.983,107.57c.396.238.925.898,1.163,1.453.37.925.37,1.11-.026,1.876-.238.476-.925,1.374-1.559,2.035-1.321,1.4-3.752,5.39-5.549,9.116-2.061,4.307-2.457,5.39-3.303,9.248-.159.713-.423,1.797-.581,2.378-.423,1.638-.581,14.242-.211,16.832.185,1.215.423,2.854.528,3.673.264,2.035.978,5.179,1.718,7.636.211.793.528,1.797.661,2.246,1.321,4.466,5.179,11.811,7.901,15.088.37.449,1.057,1.295,1.506,1.85.476.555,1.4,1.612,2.087,2.325,1.691,1.797,1.982,2.272,1.982,3.171,0,2.352-2.775,3.673-4.651,2.193-2.537-1.982-6.5-7.029-9.803-12.472-.687-1.163-2.986-5.945-3.144-6.58-.079-.37-.264-.766-.396-.846s-.238-.317-.238-.555c0-.211-.159-.766-.344-1.215-.344-.793-.687-1.85-1.585-5.073-.396-1.321-.819-3.409-1.691-8.059-.687-3.726-.687-17.862,0-21.271.951-4.677,2.008-8.139,3.594-11.626.344-.74.713-1.559.846-1.85s.661-1.242,1.163-2.114,1.031-1.823,1.163-2.114.555-.978.925-1.533.687-1.057.687-1.136c0-.317,2.405-3.224,3.409-4.149,1.242-1.11,2.457-1.295,3.752-.528ZM165.142,112.591c3.356,1.031,5.972,3.409,7.769,7.055,1.348,2.775,1.665,3.646,2.193,5.84.502,2.14,1.004,7.319.793,8.403-.264,1.348-1.189,2.087-2.695,2.114-1.136,0-1.348-.079-2.114-.951-.766-.925-.846-1.163-.978-3.435-.37-6.817-3.012-12.234-6.447-13.37-4.016-1.321-8.878,4.413-11.97,14.057-.291.978-.528,2.299-1.057,5.998-.132.951-.238,3.329-.264,5.311,0,3.224-.053,3.673-.528,4.281-1.136,1.427-3.329,1.374-4.624-.079-.502-.555-.528-.925-.476-5.655.053-5.919.634-9.565,2.246-14.163.555-1.585,2.563-5.734,3.409-7.002.264-.449.581-1.004.661-1.268.106-.238.264-.449.37-.449.132,0,.291-.211.396-.476.37-1.136,4.069-4.518,5.813-5.338,2.88-1.348,5.126-1.612,7.504-.872ZM151.032,153.918c.502.449.925,1.004.925,1.242,0,.449,1.348,4.941,1.982,6.659,1.585,4.281,3.171,7.769,4.809,10.517.634,1.083,1.136,1.982,1.136,2.061,0,.053.793,1.242,1.744,2.669,2.061,3.039,3.911,5.338,6.685,8.35,2.59,2.801,2.907,3.462,2.167,4.888-.396.793-.793,1.136-1.506,1.374-1.903.634-2.959-.079-7.24-4.888-4.175-4.703-9.195-12.868-11.732-19.157-.396-.951-.819-1.955-.951-2.246s-.608-1.718-1.057-3.171c-.476-1.453-1.031-3.144-1.242-3.752-.555-1.612-.502-3.699.106-4.36,1.136-1.268,2.854-1.348,4.175-.185Z"/>
    <path class="cls-2" d="M160.544,133.175c-.238.581-.528,1.559-.687,2.22-.132.661-.344,1.665-.502,2.246-.344,1.4-.344,8.297.026,10.305.132.872.37,2.272.502,3.092.106.819.344,1.903.476,2.378,1.031,3.409,2.035,6.527,2.299,7.082.185.37.502,1.083.713,1.585.819,1.903,1.823,3.858,2.59,5.153.423.713.872,1.506.978,1.718.528,1.11,4.096,6.051,5.84,8.059,1.665,1.929,5.972,6.21,6.262,6.21.159,0,.74-.608,1.268-1.321l1.004-1.348-2.193-2.299c-4.73-4.941-10.226-11.891-11.389-14.322-.106-.211-.476-.872-.793-1.453-2.14-3.752-3.092-6.025-4.228-10.173-.608-2.22-.951-6.395-1.083-13.318-.079-3.752-.211-6.395-.37-6.553-.185-.185-.423.053-.713.74Z"/>
    <path class="cls-2" d="M48.903,154.129l-2.246.159-.185,3.303c-.238,3.726-.026,13.45.344,16.251.132,1.004.37,2.854.502,4.096.132,1.215.37,2.775.502,3.435.291,1.268.74,3.541,1.083,5.628.132.687.344,1.638.502,2.114.132.449.449,1.612.687,2.563.766,2.959,2.563,8.508,3.277,10.173.132.291.502,1.189.819,1.982.766,1.955.793,2.035,2.669,5.945,1.427,2.986,4.783,9.011,5.232,9.38.079.079.793,1.083,1.585,2.246,4.069,5.998,11.6,13.925,17.387,18.312,1.77,1.321,3.277,2.431,3.356,2.431.053,0,.872.502,1.797,1.136s1.85,1.215,2.061,1.321.819.449,1.321.766c3.039,1.85,10.702,5.443,14.137,6.606.872.291,1.955.687,2.431.898.449.211.978.37,1.163.37s.819.159,1.427.37c3.329,1.136,7.874,2.246,13.08,3.171,1.242.211,3.012.528,3.937.687s2.88.396,4.36.528,3.858.37,5.311.502c1.453.159,5.575.264,9.195.291h6.527v-6.817c0-3.726-.132-7.927-.291-9.301-.132-1.374-.37-3.646-.476-5.021-.132-1.374-.37-3.356-.555-4.36-.951-5.813-1.665-9.328-2.272-11.257-.211-.687-.37-1.4-.37-1.638,0-.687-2.616-8.905-2.959-9.275-.106-.159-.211-.423-.211-.634,0-.396-.264-1.057-2.272-5.602-.846-1.85-2.193-4.518-3.541-7.002-.951-1.718-5.073-8.059-5.602-8.641-.185-.185-1.004-1.189-1.77-2.193-5.364-6.923-13.74-14.163-21.826-18.867-1.295-.766-2.563-1.48-2.775-1.612-1.453-.898-9.143-4.492-9.592-4.492-.185,0-.449-.106-.608-.211-.661-.581-7.901-3.012-12.261-4.149-.951-.238-2.114-.555-2.563-.687-.476-.159-1.427-.37-2.114-.502-2.087-.344-4.36-.793-5.628-1.083-.661-.132-2.22-.37-3.435-.502-1.242-.132-3.012-.37-3.964-.528-2.114-.317-14.11-.528-17.175-.291Z"/>
    <path class="cls-2" d="M266.504,154.129c-4.043.264-10.437,1.163-14.401,2.035-2.563.528-6.368,1.427-7.267,1.691-3.462,1.031-6.5,1.955-7.399,2.299-.581.211-1.48.555-1.982.74-4.783,1.77-12.551,5.496-15.722,7.531-.423.291-.978.608-1.189.713-1.215.581-7.874,5.47-10.173,7.504-4.439,3.911-8.958,8.773-11.97,12.921-.898,1.242-1.744,2.378-1.85,2.51-.132.159-.581.846-1.004,1.559-.423.687-.978,1.585-1.215,1.955-.264.396-.581.951-.74,1.242s-.687,1.242-1.189,2.114c-1.031,1.77-2.695,5.179-3.99,8.191-.185.423-.528,1.215-.74,1.77-.238.528-.423,1.136-.423,1.348,0,.238-.106.476-.238.581-.132.079-.344.528-.449,1.004-.079.449-.317,1.189-.502,1.638-.74,1.77-2.352,7.61-3.171,11.362-.238,1.163-.581,2.642-.713,3.303-.159.661-.37,1.903-.476,2.775-.238,1.744-.687,5.1-1.083,7.927-.317,2.378-.898,18.946-.661,19.554.159.423.766.449,8.297.317,4.466-.079,9.248-.264,10.622-.449,10.12-1.242,13.476-1.876,22.328-4.201,1.665-.449,6.077-1.955,6.315-2.193.159-.106.423-.211.634-.211s.793-.185,1.321-.423c.555-.211,1.374-.581,1.85-.766,5.153-2.22,9.513-4.492,13.397-7.029,1.321-.846,2.51-1.638,2.642-1.744.159-.132.819-.608,1.506-1.083.661-.476,1.374-1.004,1.585-1.163.185-.185,1.242-1.057,2.325-1.903,1.955-1.559,8.033-7.504,9.75-9.539,2.246-2.695,7.954-10.649,7.954-11.098,0-.079.449-.872,1.004-1.77.555-.925,1.823-3.329,2.801-5.364,1.929-3.99,1.955-4.043,2.827-6.21.317-.793.74-1.823.925-2.299.211-.449.37-.951.37-1.11s.159-.661.37-1.136c.661-1.612,1.031-2.775,1.903-5.893.37-1.453.634-2.431,1.4-5.549.634-2.59,1.453-7.267,2.167-12.287.185-1.242.37-6.289.423-11.389.106-7.821.053-9.169-.264-9.46-.502-.396-11.257-.608-15.907-.317Z"/>
  </g>
</svg>