<?xml version="1.0" encoding="UTF-8"?>
<svg id="Layer_1" data-name="Layer 1" xmlns="http://www.w3.org/2000/svg" viewBox="0 0 323.269 323.269">
  <defs>
    <style>
      .cls-1 {
        fill: none;
      }

      .cls-1, .cls-2 {
        stroke: #1d1d1b;
        stroke-miterlimit: 10;
        stroke-width: 6px;
      }

      .cls-2 {
        fill: #376eb5;
      }

      .cls-3 {
        fill: #f6f6f6;
      }

      .cls-3, .cls-4 {
        stroke-width: 0px;
      }

      .cls-4 {
        fill: #1d1d1b;
      }
    </style>
  </defs>
  <rect class="cls-2" x="3" y="3" width="317.269" height="317.269"/>
  <g>
    <g>
      <path class="cls-3" d="M232.804,178.983l28.052-32.896c3.113,1.437,5.279,4.605,5.279,8.262v24.634h-33.331Z"/>
      <path class="cls-3" d="M254.673,77.116c1.23,3.549.054,7.369-2.689,9.634l-37.011-22.446,23.143-8.066c4.572-1.589,9.568.827,11.158,5.399l5.399,15.479Z"/>
      <path class="cls-4" d="M214.974,64.304l37.011,22.446c-.784.653-1.687,1.176-2.71,1.535l-25.102,8.741-37.109-22.511-.152-.435,28.052-9.775h.011Z"/>
      <path class="cls-4" d="M204.469,178.983l28.585-33.516v-.229h23.97c1.372,0,2.667.305,3.832.849l-28.052,32.896h-28.335Z"/>
      <polygon class="cls-3" points="224.172 97.026 196.523 106.659 196.37 106.224 159.251 83.713 186.911 74.079 187.063 74.515 224.172 97.026"/>
      <polygon class="cls-3" points="175.154 178.983 203.74 145.466 203.74 145.238 233.054 145.238 233.054 145.466 204.469 178.983 175.154 178.983"/>
      <polygon class="cls-4" points="168.46 116.435 131.656 94.108 131.416 93.412 159.251 83.713 196.37 106.224 196.523 106.659 168.46 116.435"/>
      <polygon class="cls-4" points="145.709 178.983 174.294 145.466 174.294 145.238 203.74 145.238 203.74 145.466 175.154 178.983 145.709 178.983"/>
      <polygon class="cls-3" points="168.46 116.435 141.028 125.992 140.963 125.807 103.55 103.122 131.416 93.412 131.656 94.108 168.46 116.435"/>
      <polygon class="cls-3" points="116.133 178.983 144.729 145.466 144.729 145.238 174.294 145.238 174.294 145.466 145.709 178.983 116.133 178.983"/>
      <polygon class="cls-4" points="140.963 125.807 141.028 125.992 113.891 135.441 113.738 135.005 76.63 112.494 103.55 103.122 140.963 125.807"/>
      <polygon class="cls-4" points="86.971 178.983 115.556 145.466 115.556 145.238 144.729 145.238 144.729 145.466 116.133 178.983 86.971 178.983"/>
      <path class="cls-3" d="M88.626,145.238h-2.841l2.896-1.012c0,.337-.033.675-.054,1.012Z"/>
      <path class="cls-3" d="M85.784,145.238h2.841c-.827,7.957-7.544,14.151-15.708,14.151h-.076c-.903,0-1.785-.087-2.645-.239v-13.912h1.578c2.297,2.101,5.65,2.906,8.806,1.807l5.192-1.807h.011Z"/>
      <path class="cls-3" d="M85.774,145.238l-5.192,1.807c-3.157,1.099-6.51.294-8.806-1.807h13.999Z"/>
      <path class="cls-3" d="M70.196,145.238v13.912c-7.424-1.284-13.063-7.75-13.063-15.544,0-5.954,3.287-11.125,8.153-13.814l4.136,11.865c.49,1.415,1.317,2.634,2.351,3.581h-1.578Z"/>
      <path class="cls-4" d="M253.116,267.514H83.215c-7.184,0-13.019-5.824-13.019-13.019v-74.424h195.939v74.424c0,7.195-5.835,13.019-13.019,13.019Z"/>
      <path class="cls-3" d="M88.626,145.238h26.931v.229l-28.585,33.516h-16.775v-15.359l2.645-4.234h.076c8.164,0,14.88-6.194,15.708-14.151Z"/>
      <path class="cls-3" d="M70.196,163.623v-4.474c.86.152,1.742.239,2.645.239l-2.645,4.234Z"/>
      <path class="cls-3" d="M85.784,145.238h-14.01c-1.034-.947-1.861-2.166-2.351-3.581l-4.136-11.865c2.264-1.263,4.866-1.97,7.631-1.97,8.719,0,15.784,7.065,15.784,15.784,0,.207,0,.414-.022.62l-2.896,1.012Z"/>
      <path class="cls-3" d="M113.738,135.005l.152.435-25.211,8.785c.022-.207.022-.414.022-.62,0-8.719-7.065-15.784-15.784-15.784-2.765,0-5.367.708-7.631,1.97l-1.263-3.625c-1.589-4.572.827-9.568,5.399-11.158l7.206-2.515,37.109,22.511Z"/>
    </g>
    <g>
      <path class="cls-1" d="M253.116,267.514H83.215c-7.184,0-13.019-5.824-13.019-13.019v-74.424h195.939v74.424c0,7.195-5.835,13.019-13.019,13.019Z"/>
      <path class="cls-1" d="M88.626,145.238h168.399c1.372,0,2.667.305,3.832.849,3.113,1.437,5.279,4.605,5.279,8.262v24.634H70.196v-19.833"/>
      <path class="cls-1" d="M214.974,64.304l23.143-8.066c4.572-1.589,9.568.827,11.158,5.399l5.399,15.479c1.23,3.549.054,7.369-2.689,9.634-.784.653-1.687,1.176-2.71,1.535l-25.102,8.741-27.649,9.634-28.063,9.775-27.431,9.557-27.138,9.449-25.211,8.785"/>
      <path class="cls-1" d="M65.287,129.791l-1.263-3.625c-1.589-4.572.827-9.568,5.399-11.158l7.206-2.515,26.92-9.372,27.867-9.71,27.834-9.699,27.66-9.634,28.052-9.775"/>
      <path class="cls-1" d="M65.287,129.791c2.264-1.263,4.866-1.97,7.631-1.97,8.719,0,15.784,7.065,15.784,15.784,0,.207,0,.414-.022.62,0,.337-.033.675-.054,1.012-.827,7.957-7.544,14.151-15.708,14.151h-.076c-.903,0-1.785-.087-2.645-.239-7.424-1.284-13.063-7.75-13.063-15.544,0-5.954,3.287-11.125,8.153-13.814Z"/>
      <polyline class="cls-1" points="86.187 179.396 86.536 178.983 115.132 145.466"/>
      <polyline class="cls-1" points="115.785 179.396 116.133 178.983 144.729 145.466"/>
      <polyline class="cls-1" points="145.361 179.396 145.709 178.983 174.294 145.466"/>
      <polyline class="cls-1" points="174.806 179.396 175.154 178.983 203.74 145.466"/>
      <polyline class="cls-1" points="69.87 164.146 70.196 163.623 72.842 159.389 72.918 159.269"/>
      <polyline class="cls-1" points="86.623 179.396 86.971 178.983 115.556 145.466"/>
      <polyline class="cls-1" points="204.121 179.396 204.469 178.983 233.054 145.466"/>
      <polyline class="cls-1" points="232.456 179.396 232.804 178.983 260.856 146.087 261.389 145.466"/>
      <polyline class="cls-1" points="214.876 64.249 214.963 64.304 214.974 64.304 251.984 86.75 252.681 87.174"/>
      <polyline class="cls-1" points="158.565 83.299 159.251 83.713 196.37 106.224"/>
      <polyline class="cls-1" points="187.063 74.515 224.172 97.026 224.858 97.439"/>
      <polyline class="cls-1" points="103.158 102.882 103.55 103.122 140.963 125.807"/>
      <polyline class="cls-1" points="131.656 94.108 168.46 116.435 169.45 117.033"/>
      <polyline class="cls-1" points="75.944 112.08 76.63 112.494 113.738 135.005"/>
    </g>
  </g>
</svg>