<svg xmlns="http://www.w3.org/2000/svg" version="1.1" xmlns:xlink="http://www.w3.org/1999/xlink" xmlns:svgjs="http://svgjs.com/svgjs" width="900.000000pt" height="786.000000pt"><svg version="1.0" xmlns="http://www.w3.org/2000/svg" width="900.000000pt" height="786.000000pt" viewBox="0 0 900.000000 786.000000" preserveAspectRatio="xMidYMid meet">  <g transform="translate(0.000000,786.000000) scale(0.100000,-0.100000)" fill="#000000" stroke="none"> <path d="M4378 7757 c-41 -34 -52 -49 -50 -68 2 -13 5 -40 8 -59 8 -60 -46 -104 -140 -114 -32 -4 -71 -14 -85 -22 -42 -26 -233 -256 -222 -267 7 -7 20 -6 38 2 101 48 411 100 593 100 100 1 291 -20 350 -38 45 -14 70 -14 70 0 0 15 -58 86 -135 166 l-61 63 -92 0 c-105 0 -147 13 -181 56 -31 39 -25 104 13 143 l27 28 -31 27 c-17 14 -36 26 -40 26 -5 0 -33 -20 -62 -43z"></path> <path d="M4355 7101 c-121 -12 -352 -68 -450 -110 -136 -58 -173 -71 -205 -71 -34 0 -80 -31 -80 -54 0 -4 -11 -22 -24 -39 -13 -18 -36 -54 -51 -82 -14 -27 -36 -66 -47 -85 -41 -70 -108 -201 -108 -211 0 -13 46 15 91 56 37 32 185 127 269 171 114 61 276 124 430 167 161 45 202 51 395 51 180 -1 192 -2 228 -23 46 -28 57 -48 57 -100 0 -28 -7 -48 -24 -68 l-24 -28 -204 0 c-129 0 -219 -5 -248 -12 -25 -7 -65 -17 -90 -23 -76 -19 -159 -45 -215 -69 -156 -66 -210 -92 -287 -138 -153 -90 -280 -197 -371 -313 -87 -110 -118 -140 -160 -152 -50 -15 -68 -54 -73 -153 -3 -65 -15 -112 -40 -160 -16 -30 -40 -153 -58 -295 -16 -127 -23 -573 -10 -640 8 -37 24 -22 24 23 0 37 26 96 52 121 28 26 96 26 131 0 50 -37 53 -96 15 -294 -16 -84 -22 -463 -9 -546 7 -38 16 -95 21 -126 4 -31 13 -72 18 -90 6 -18 18 -60 28 -93 19 -65 136 -299 194 -390 11 -16 24 -39 30 -50 34 -63 142 -225 229 -340 157 -211 293 -366 513 -590 l138 -140 130 133 c148 152 279 297 305 336 l18 27 -119 122 c-122 125 -195 206 -239 267 -13 19 -28 40 -32 45 -103 133 -251 410 -316 590 -95 265 -121 412 -122 685 0 221 4 251 52 405 46 151 137 268 218 280 88 14 138 -12 188 -93 59 -96 79 -240 83 -572 2 -214 5 -256 24 -330 12 -47 26 -89 31 -94 5 -6 9 -18 9 -27 0 -26 109 -235 174 -332 108 -163 369 -467 401 -467 13 0 69 82 86 127 10 27 9 29 -106 158 -35 39 -83 95 -106 125 -24 30 -49 61 -56 68 -16 16 -114 167 -139 212 -10 19 -24 42 -30 50 -29 41 -90 211 -118 330 -37 159 -31 213 29 250 39 24 68 25 105 4 37 -23 56 -59 63 -122 4 -29 11 -68 16 -85 5 -18 20 -66 32 -107 41 -136 117 -270 254 -445 131 -168 205 -233 205 -181 0 7 14 38 30 69 17 31 30 66 30 78 0 18 -55 98 -81 119 -3 3 -39 54 -79 113 -75 113 -175 301 -204 384 -29 84 -54 166 -69 223 -27 101 -77 363 -77 401 0 13 -7 65 -15 114 -9 50 -23 133 -31 185 -29 174 -61 269 -118 349 -122 174 -314 240 -521 180 -112 -33 -116 -33 -150 -15 -62 34 -82 104 -44 157 59 83 339 127 509 80 211 -59 372 -201 460 -409 46 -107 63 -182 104 -452 8 -52 20 -126 26 -165 6 -38 15 -101 20 -138 5 -38 14 -85 19 -105 5 -20 17 -68 26 -107 22 -90 56 -197 67 -209 4 -6 8 -16 8 -23 0 -14 65 -152 102 -218 38 -66 115 -180 136 -198 19 -17 20 -16 42 55 12 40 28 89 35 108 32 89 30 106 -21 182 -43 66 -144 257 -144 273 0 4 -6 21 -14 38 -17 38 -69 198 -90 277 -8 30 -22 84 -32 119 -37 132 -22 196 54 228 29 12 36 11 72 -7 45 -23 60 -45 76 -115 26 -108 42 -172 58 -225 9 -30 21 -68 26 -85 4 -16 18 -55 30 -85 12 -30 25 -67 30 -81 11 -36 41 -80 50 -74 7 4 11 50 26 296 6 84 4 104 -18 170 -34 101 -69 265 -88 409 -6 41 -15 88 -20 104 -6 16 -10 41 -10 56 0 15 -7 52 -16 81 -8 30 -22 79 -31 109 -16 55 -44 143 -69 212 -53 146 -176 310 -309 412 -91 70 -95 72 -188 121 -85 44 -106 68 -106 120 0 91 88 131 186 84 67 -32 197 -111 201 -121 4 -9 32 -11 32 -2 0 4 -13 28 -28 53 -16 25 -31 53 -35 61 -4 8 -15 27 -25 42 -9 14 -30 47 -46 73 -32 54 -57 85 -68 85 -3 0 -36 14 -71 30 -36 17 -72 30 -81 30 -8 0 -17 4 -21 9 -3 5 -20 12 -38 16 -17 4 -50 12 -72 20 -129 42 -373 63 -550 46z m370 -651 c159 -31 256 -72 371 -157 118 -87 205 -194 268 -328 21 -44 42 -88 47 -97 5 -10 9 -23 9 -29 0 -6 6 -25 13 -42 8 -18 22 -59 32 -92 9 -33 23 -78 31 -100 25 -71 19 -109 -23 -150 -42 -41 -79 -45 -128 -15 -33 20 -47 50 -89 195 -10 33 -24 75 -32 93 -8 18 -14 38 -14 43 0 6 -21 55 -47 108 -38 76 -64 112 -123 173 -42 42 -87 82 -101 88 -13 5 -37 18 -54 28 -68 40 -231 81 -327 82 -50 0 -172 -19 -230 -36 -26 -8 -52 -14 -58 -14 -20 0 -219 -99 -272 -135 -44 -31 -74 -54 -177 -140 -53 -45 -196 -227 -257 -327 -35 -59 -64 -112 -64 -117 0 -5 -6 -22 -14 -38 -27 -51 -46 -101 -46 -116 0 -9 -4 -18 -9 -22 -5 -3 -12 -20 -16 -38 -27 -131 -55 -196 -96 -219 -45 -26 -71 -22 -115 16 -36 31 -39 38 -38 84 1 77 65 274 143 442 119 256 387 554 626 696 261 155 541 213 790 164z m-714 -707 c15 -9 35 -34 44 -55 14 -35 14 -42 -1 -71 -9 -18 -35 -52 -59 -77 -50 -53 -142 -204 -210 -345 -78 -163 -93 -204 -125 -350 -6 -27 -16 -68 -22 -90 -16 -62 -22 -539 -8 -637 7 -46 16 -108 20 -139 10 -77 37 -196 65 -289 8 -30 20 -68 25 -85 50 -169 196 -447 299 -571 14 -17 40 -49 57 -70 18 -21 53 -61 79 -88 64 -68 75 -86 75 -120 0 -89 -105 -139 -176 -83 -96 75 -246 266 -371 472 -26 44 -113 225 -119 249 -3 14 -10 29 -15 32 -5 3 -9 12 -9 21 0 8 -6 29 -13 46 -13 30 -26 70 -60 192 -15 50 -31 129 -64 305 -26 141 -26 676 0 805 36 177 76 308 136 440 13 28 27 59 32 70 5 11 25 47 44 80 19 33 39 69 44 80 5 11 21 37 35 58 14 21 26 40 26 43 0 12 91 122 129 157 47 42 93 49 142 20z m498 -190 c127 -39 226 -129 294 -267 51 -105 63 -138 83 -221 19 -81 38 -277 30 -318 -10 -51 -45 -79 -102 -80 -43 0 -51 3 -80 36 -29 35 -32 44 -37 130 -14 258 -114 463 -244 506 -152 50 -336 -167 -453 -532 -11 -37 -20 -87 -40 -227 -5 -36 -9 -126 -10 -201 0 -122 -2 -139 -20 -162 -43 -54 -126 -52 -175 3 -19 21 -20 35 -18 214 2 224 24 362 85 536 21 60 97 217 129 265 10 17 22 38 25 48 4 9 10 17 14 17 5 0 11 8 15 18 14 43 154 171 220 202 109 51 194 61 284 33z m-534 -1564 c19 -17 35 -38 35 -47 0 -17 51 -187 75 -252 60 -162 120 -294 182 -398 24 -41 43 -75 43 -78 0 -2 30 -47 66 -101 78 -115 148 -202 253 -316 98 -106 110 -131 82 -185 -15 -30 -30 -43 -57 -52 -72 -24 -112 3 -274 185 -158 178 -348 487 -444 725 -15 36 -31 74 -36 85 -5 11 -23 65 -40 120 -18 55 -39 119 -47 142 -21 61 -19 140 4 165 43 48 108 51 158 7z"></path> <path d="M4335 4774 c-9 -22 -20 -59 -26 -84 -5 -25 -13 -63 -19 -85 -13 -53 -13 -314 1 -390 5 -33 14 -86 19 -117 4 -31 13 -72 18 -90 39 -129 77 -247 87 -268 7 -14 19 -41 27 -60 31 -72 69 -146 98 -195 16 -27 33 -57 37 -65 20 -42 155 -229 221 -305 63 -73 226 -235 237 -235 6 0 28 23 48 50 l38 51 -83 87 c-179 187 -387 450 -431 542 -4 8 -18 33 -30 55 -81 142 -117 228 -160 385 -23 84 -36 242 -41 504 -3 142 -8 242 -14 248 -7 7 -16 -2 -27 -28z"></path> <path d="M110 3981 l-85 -6 -7 -125 c-9 -141 -1 -509 13 -615 5 -38 14 -108 19 -155 5 -46 14 -105 19 -130 11 -48 28 -134 41 -213 5 -26 13 -62 19 -80 5 -17 17 -61 26 -97 29 -112 97 -322 124 -385 5 -11 19 -45 31 -75 29 -74 30 -77 101 -225 54 -113 181 -341 198 -355 3 -3 30 -41 60 -85 154 -227 439 -527 658 -693 67 -50 124 -92 127 -92 2 0 33 -19 68 -43 35 -24 70 -46 78 -50 8 -4 31 -17 50 -29 115 -70 405 -206 535 -250 33 -11 74 -26 92 -34 17 -8 37 -14 44 -14 7 0 31 -6 54 -14 126 -43 298 -85 495 -120 47 -8 114 -20 149 -26 35 -6 109 -15 165 -20 56 -5 146 -14 201 -19 55 -6 211 -10 348 -11 l247 0 0 258 c0 141 -5 300 -11 352 -5 52 -14 138 -18 190 -5 52 -14 127 -21 165 -36 220 -63 353 -86 426 -8 26 -14 53 -14 62 0 26 -99 337 -112 351 -4 6 -8 16 -8 24 0 15 -10 40 -86 212 -32 70 -83 171 -134 265 -36 65 -192 305 -212 327 -7 7 -38 45 -67 83 -203 262 -520 536 -826 714 -49 29 -97 56 -105 61 -55 34 -346 170 -363 170 -7 0 -17 4 -23 8 -25 22 -299 114 -464 157 -36 9 -80 21 -97 26 -18 6 -54 14 -80 19 -79 13 -165 30 -213 41 -25 5 -84 14 -130 19 -47 5 -114 14 -150 20 -80 12 -534 20 -650 11z"></path> <path d="M8345 3981 c-153 -10 -395 -44 -545 -77 -97 -20 -241 -54 -275 -64 -131 -39 -246 -74 -280 -87 -22 -8 -56 -21 -75 -28 -181 -67 -475 -208 -595 -285 -16 -11 -37 -23 -45 -27 -46 -22 -298 -207 -385 -284 -168 -148 -339 -332 -453 -489 -34 -47 -66 -90 -70 -95 -5 -6 -22 -32 -38 -59 -16 -26 -37 -60 -46 -74 -10 -15 -22 -36 -28 -47 -6 -11 -26 -47 -45 -80 -39 -67 -102 -196 -151 -310 -7 -16 -20 -46 -28 -67 -9 -20 -16 -43 -16 -51 0 -9 -4 -18 -9 -22 -5 -3 -13 -20 -17 -38 -3 -17 -12 -45 -19 -62 -28 -67 -89 -288 -120 -430 -9 -44 -22 -100 -27 -125 -6 -25 -14 -72 -18 -105 -9 -66 -26 -193 -41 -300 -12 -90 -34 -717 -25 -740 6 -16 29 -17 314 -12 169 3 350 10 402 17 383 47 510 71 845 159 63 17 230 74 239 83 6 4 16 8 24 8 8 0 30 7 50 16 21 8 52 22 70 29 195 84 360 170 507 266 50 32 95 62 100 66 6 5 31 23 57 41 25 18 52 38 60 44 7 7 47 40 88 72 74 59 304 284 369 361 85 102 301 403 301 420 0 3 17 33 38 67 21 35 69 126 106 203 73 151 74 153 107 235 12 30 28 69 35 87 8 17 14 36 14 42 0 6 6 25 14 43 25 61 39 105 72 223 14 55 24 92 53 210 24 98 55 275 82 465 7 47 14 238 16 431 4 296 2 347 -10 358 -19 15 -426 23 -602 12z"></path> </g> </svg><style>@media (prefers-color-scheme: light) { :root { filter: none; } }
@media (prefers-color-scheme: dark) { :root { filter: contrast(0.8333333333333334) brightness(1.7); } }
</style></svg>