<?xml version="1.0" encoding="UTF-8"?>
<svg id="Layer_1" data-name="Layer 1" xmlns="http://www.w3.org/2000/svg" viewBox="0 0 215 217.77">
  <defs>
    <style>
      .cls-1 {
        fill: none;
        stroke: #1d1d1b;
        stroke-miterlimit: 10;
        stroke-width: 6px;
      }

      .cls-2 {
        fill: #f6f6f6;
      }

      .cls-2, .cls-3 {
        stroke-width: 0px;
      }

      .cls-3 {
        fill: #1d1d1b;
      }
    </style>
  </defs>
  <g>
    <path class="cls-2" d="M178.67,126.23l28.05-32.9c3.11,1.44,5.28,4.6,5.28,8.26v24.63h-33.33Z"/>
    <path class="cls-2" d="M200.54,24.37c1.23,3.55.05,7.37-2.69,9.63l-37.01-22.45,23.14-8.07c4.57-1.59,9.57.83,11.16,5.4l5.4,15.48Z"/>
    <path class="cls-3" d="M160.84,11.55l37.01,22.45c-.78.65-1.69,1.18-2.71,1.53l-25.1,8.74-37.11-22.51-.15-.44,28.05-9.78h.01Z"/>
    <path class="cls-3" d="M150.34,126.23l28.59-33.52v-.23h23.97c1.37,0,2.67.3,3.83.85l-28.05,32.9h-28.33Z"/>
    <polygon class="cls-2" points="170.04 44.28 142.39 53.91 142.24 53.47 105.12 30.96 132.78 21.33 132.93 21.77 170.04 44.28"/>
    <polygon class="cls-2" points="121.02 126.23 149.61 92.72 149.61 92.49 178.92 92.49 178.92 92.72 150.34 126.23 121.02 126.23"/>
    <polygon class="cls-3" points="114.33 63.69 77.52 41.36 77.28 40.66 105.12 30.96 142.24 53.47 142.39 53.91 114.33 63.69"/>
    <polygon class="cls-3" points="91.58 126.23 120.16 92.72 120.16 92.49 149.61 92.49 149.61 92.72 121.02 126.23 91.58 126.23"/>
    <polygon class="cls-2" points="114.33 63.69 86.89 73.24 86.83 73.06 49.42 50.37 77.28 40.66 77.52 41.36 114.33 63.69"/>
    <polygon class="cls-2" points="62 126.23 90.6 92.72 90.6 92.49 120.16 92.49 120.16 92.72 91.58 126.23 62 126.23"/>
    <polygon class="cls-3" points="86.83 73.06 86.89 73.24 59.76 82.69 59.6 82.26 22.5 59.74 49.42 50.37 86.83 73.06"/>
    <polygon class="cls-3" points="32.84 126.23 61.42 92.72 61.42 92.49 90.6 92.49 90.6 92.72 62 126.23 32.84 126.23"/>
    <path class="cls-2" d="M34.49,92.49h-2.84l2.9-1.01c0,.34-.03.67-.05,1.01Z"/>
    <path class="cls-2" d="M31.65,92.49h2.84c-.83,7.96-7.54,14.15-15.71,14.15h-.08c-.9,0-1.79-.09-2.65-.24v-13.91h1.58c2.3,2.1,5.65,2.91,8.81,1.81l5.19-1.81h.01Z"/>
    <path class="cls-2" d="M31.64,92.49l-5.19,1.81c-3.16,1.1-6.51.29-8.81-1.81h14Z"/>
    <path class="cls-2" d="M16.06,92.49v13.91c-7.42-1.28-13.06-7.75-13.06-15.54,0-5.95,3.29-11.12,8.15-13.81l4.14,11.87c.49,1.42,1.32,2.63,2.35,3.58h-1.58Z"/>
    <path class="cls-3" d="M198.98,214.77H29.08c-7.18,0-13.02-5.82-13.02-13.02v-74.42h195.94v74.42c0,7.2-5.83,13.02-13.02,13.02Z"/>
    <path class="cls-2" d="M34.49,92.49h26.93v.23l-28.59,33.52h-16.77v-15.36l2.65-4.23h.08c8.16,0,14.88-6.19,15.71-14.15Z"/>
    <path class="cls-2" d="M16.06,110.87v-4.47c.86.15,1.74.24,2.65.24l-2.65,4.23Z"/>
    <path class="cls-2" d="M31.65,92.49h-14.01c-1.03-.95-1.86-2.17-2.35-3.58l-4.14-11.87c2.26-1.26,4.87-1.97,7.63-1.97,8.72,0,15.78,7.06,15.78,15.78,0,.21,0,.41-.02.62l-2.9,1.01Z"/>
    <path class="cls-2" d="M59.6,82.26l.15.44-25.21,8.78c.02-.21.02-.41.02-.62,0-8.72-7.06-15.78-15.78-15.78-2.76,0-5.37.71-7.63,1.97l-1.26-3.62c-1.59-4.57.83-9.57,5.4-11.16l7.21-2.51,37.11,22.51Z"/>
  </g>
  <g>
    <path class="cls-1" d="M198.98,214.77H29.08c-7.18,0-13.02-5.82-13.02-13.02v-74.42h195.94v74.42c0,7.2-5.83,13.02-13.02,13.02Z"/>
    <path class="cls-1" d="M34.49,92.49h168.4c1.37,0,2.67.3,3.83.85,3.11,1.44,5.28,4.6,5.28,8.26v24.63H16.06v-19.83"/>
    <path class="cls-1" d="M160.84,11.55l23.14-8.07c4.57-1.59,9.57.83,11.16,5.4l5.4,15.48c1.23,3.55.05,7.37-2.69,9.63-.78.65-1.69,1.18-2.71,1.53l-25.1,8.74-27.65,9.63-28.06,9.78-27.43,9.56-27.14,9.45-25.21,8.78"/>
    <path class="cls-1" d="M11.15,77.04l-1.26-3.62c-1.59-4.57.83-9.57,5.4-11.16l7.21-2.51,26.92-9.37,27.87-9.71,27.83-9.7,27.66-9.63,28.05-9.78"/>
    <path class="cls-1" d="M11.15,77.04c2.26-1.26,4.87-1.97,7.63-1.97,8.72,0,15.78,7.06,15.78,15.78,0,.21,0,.41-.02.62,0,.34-.03.67-.05,1.01-.83,7.96-7.54,14.15-15.71,14.15h-.08c-.9,0-1.79-.09-2.65-.24-7.42-1.28-13.06-7.75-13.06-15.54,0-5.95,3.29-11.12,8.15-13.81Z"/>
    <polyline class="cls-1" points="32.05 126.65 32.4 126.23 61 92.72"/>
    <polyline class="cls-1" points="61.65 126.65 62 126.23 90.6 92.72"/>
    <polyline class="cls-1" points="91.23 126.65 91.58 126.23 120.16 92.72"/>
    <polyline class="cls-1" points="120.67 126.65 121.02 126.23 149.61 92.72"/>
    <polyline class="cls-1" points="15.74 111.4 16.06 110.87 18.71 106.64 18.78 106.52"/>
    <polyline class="cls-1" points="32.49 126.65 32.84 126.23 61.42 92.72"/>
    <polyline class="cls-1" points="149.99 126.65 150.34 126.23 178.92 92.72"/>
    <polyline class="cls-1" points="178.32 126.65 178.67 126.23 206.72 93.34 207.26 92.72"/>
    <polyline class="cls-1" points="160.74 11.5 160.83 11.55 160.84 11.55 197.85 34 198.55 34.43"/>
    <polyline class="cls-1" points="104.43 30.55 105.12 30.96 142.24 53.47"/>
    <polyline class="cls-1" points="132.93 21.77 170.04 44.28 170.72 44.69"/>
    <polyline class="cls-1" points="49.02 50.13 49.42 50.37 86.83 73.06"/>
    <polyline class="cls-1" points="77.52 41.36 114.33 63.69 115.32 64.28"/>
    <polyline class="cls-1" points="21.81 59.33 22.5 59.74 59.6 82.26"/>
  </g>
</svg>