<?xml version="1.0" encoding="UTF-8"?>
<svg id="Layer_1" data-name="Layer 1" xmlns="http://www.w3.org/2000/svg" viewBox="0 0 323.269 323.269">
  <defs>
    <style>
      .cls-1 {
        fill: #c6c6c6;
        stroke: #1d1d1b;
        stroke-miterlimit: 10;
        stroke-width: 6px;
      }

      .cls-2 {
        fill: #010101;
        stroke-width: 0px;
      }
    </style>
  </defs>
  <rect class="cls-1" x="3" y="3" width="317.269" height="317.269"/>
  <path class="cls-2" d="M107.446,80.272c-3.079-2.399-7.455-2.107-10.243.648l-12.966,12.966c-2.755,2.755-3.047,7.131-.681,10.243l25.932,33.711c1.459,1.912,3.76,3.047,6.159,3.047h17.536l35.332,35.332c-4.765,9.4-3.241,21.199,4.635,29.044l36.304,36.304c4.052,4.052,10.632,4.052,14.684,0l20.745-20.745c4.052-4.052,4.052-10.632,0-14.684l-36.304-36.304c-7.844-7.844-19.643-9.4-29.044-4.635l-35.332-35.332v-17.504c0-2.431-1.135-4.7-3.047-6.159l-33.711-25.932ZM88.418,207.045c-4.117,4.117-6.451,9.724-6.451,15.559,0,12.155,9.854,22.01,22.01,22.01,5.835,0,11.442-2.334,15.559-6.451l38.184-38.184c-2.528-6.775-2.917-14.133-1.167-21.102l-20-20-48.136,48.168ZM247.931,125.328c0-3.404-.357-6.71-1.037-9.886-.778-3.63-5.219-4.57-7.844-1.945l-20.713,20.713c-.972.972-2.301,1.523-3.663,1.523h-18.606c-2.852,0-5.186-2.334-5.186-5.186v-18.638c0-1.361.551-2.69,1.523-3.663l20.713-20.713c2.626-2.626,1.686-7.066-1.945-7.844-3.209-.681-6.515-1.037-9.919-1.037-25.77,0-46.677,20.907-46.677,46.677v.259l27.65,27.65c11.669-2.95,24.57.162,33.711,9.303l5.089,5.089c15.883-7.455,26.904-23.598,26.904-42.301ZM100.12,218.682c0-4.297,3.483-7.78,7.78-7.78s7.78,3.483,7.78,7.78-3.483,7.78-7.78,7.78-7.78-3.483-7.78-7.78Z"/>
</svg>